<svg width="19" height="26" viewBox="0 0 19 26" fill="none" xmlns="http://www.w3.org/2000/svg">
<g id="Figma svg">
<g id="Group">
<path id="Rectangle 55" d="M17.2093 5.51822C17.2093 7.58427 15.5056 9.25912 13.4041 9.25912H9.5V1.77734H13.4041C15.5056 1.77734 17.2093 3.45219 17.2093 5.51822Z" stroke="#3C3C43" stroke-opacity="0.6" stroke-width="2"/>
<path id="Rectangle 55_2" d="M1.79071 5.51822C1.79071 7.58427 3.49437 9.25912 5.59594 9.25912H9.50001V1.77734H5.59594C3.49437 1.77734 1.79071 3.45219 1.79071 5.51822Z" stroke="#3C3C43" stroke-opacity="0.6" stroke-width="2"/>
<path id="Rectangle 55_3" d="M1.79071 13.0001C1.79071 15.0661 3.49437 16.741 5.59594 16.741H9.50001V9.25922H5.59594C3.49437 9.25922 1.79071 10.9341 1.79071 13.0001Z" stroke="#3C3C43" stroke-opacity="0.6" stroke-width="2"/>
<path id="Rectangle 55_4" d="M1.79071 20.4818C1.79071 22.5478 3.51892 24.2227 5.62049 24.2227C7.74936 24.2227 9.50001 22.5261 9.50001 20.4332V16.7409H5.59594C3.49437 16.7409 1.79071 18.4158 1.79071 20.4818Z" stroke="#3C3C43" stroke-opacity="0.6" stroke-width="2"/>
<path id="Rectangle 55_5" d="M9.5 13.0001C9.5 15.0661 11.2037 16.741 13.3052 16.741H13.4041C15.5056 16.741 17.2093 15.0661 17.2093 13.0001C17.2093 10.9341 15.5056 9.25922 13.4041 9.25922H13.3052C11.2037 9.25922 9.5 10.9341 9.5 13.0001Z" stroke="#3C3C43" stroke-opacity="0.6" stroke-width="2"/>
</g>
</g>
</svg>
