<svg width="24" height="24" viewBox="0 0 24 24" fill="none" xmlns="http://www.w3.org/2000/svg">
<g id="Instagram svg" clip-path="url(#clip0_105_1641)">
<path id="Vector" d="M7.03007 0.0839862C5.75327 0.144226 4.88135 0.347986 4.11911 0.647506C3.33023 0.954946 2.66159 1.36751 1.99631 2.03519C1.33103 2.70287 0.921349 3.37199 0.616069 4.16207C0.320629 4.92599 0.120469 5.79863 0.0640689 7.07615C0.00766895 8.35367 -0.00481106 8.76431 0.00142894 12.023C0.00766894 15.2817 0.0220689 15.6902 0.0839889 16.9704C0.144949 18.2469 0.347989 19.1186 0.647509 19.8811C0.955429 20.67 1.36751 21.3384 2.03543 22.0039C2.70335 22.6694 3.37199 23.0781 4.16399 23.3839C4.92719 23.6789 5.80007 23.88 7.07735 23.9359C8.35463 23.9918 8.76575 24.0048 12.0235 23.9985C15.2813 23.9923 15.6914 23.9779 16.9713 23.9172C18.2513 23.8565 19.1184 23.652 19.8811 23.3539C20.67 23.0453 21.3389 22.6339 22.0039 21.9657C22.6689 21.2976 23.0784 20.628 23.3834 19.8374C23.6791 19.0742 23.88 18.2013 23.9354 16.925C23.9913 15.6441 24.0045 15.2352 23.9983 11.9769C23.9921 8.71871 23.9774 8.31023 23.9167 7.03055C23.856 5.75087 23.6527 4.88183 23.3534 4.11887C23.045 3.32999 22.6334 2.66207 21.9657 1.99607C21.2981 1.33007 20.628 0.920866 19.8377 0.616546C19.074 0.321106 18.2016 0.119746 16.9243 0.0645462C15.647 0.00934617 15.2359 -0.00481383 11.9769 0.00142617C8.71799 0.00766617 8.30999 0.0215862 7.03007 0.0839862ZM7.17023 21.7771C6.00023 21.7262 5.36495 21.5318 4.94159 21.3691C4.38095 21.1531 3.98159 20.892 3.55967 20.4741C3.13775 20.0563 2.87855 19.6555 2.65967 19.0961C2.49527 18.6727 2.29727 18.0381 2.24255 16.8681C2.18303 15.6036 2.17055 15.2239 2.16359 12.0201C2.15663 8.81639 2.16887 8.43719 2.22431 7.17215C2.27423 6.00311 2.46983 5.36711 2.63231 4.94399C2.84831 4.38263 3.10847 3.98399 3.52727 3.56231C3.94607 3.14063 4.34567 2.88095 4.90559 2.66207C5.32847 2.49695 5.96303 2.30063 7.13255 2.24495C8.39807 2.18495 8.77727 2.17295 11.9805 2.16599C15.1838 2.15903 15.564 2.17103 16.83 2.22671C17.999 2.27759 18.6353 2.47127 19.0579 2.63471C19.6188 2.85071 20.0179 3.11015 20.4396 3.52967C20.8613 3.94919 21.1212 4.34735 21.3401 4.90847C21.5054 5.33015 21.7017 5.96447 21.7569 7.13471C21.8172 8.40023 21.8309 8.77967 21.8366 11.9827C21.8424 15.1857 21.8311 15.5661 21.7757 16.8307C21.7245 18.0007 21.5306 18.6362 21.3677 19.0601C21.1517 19.6205 20.8913 20.0201 20.4722 20.4415C20.0532 20.8629 19.6541 21.1226 19.0939 21.3415C18.6715 21.5064 18.0362 21.7032 16.8677 21.7589C15.6021 21.8184 15.2229 21.8309 12.0185 21.8378C8.81399 21.8448 8.43599 21.8318 7.17047 21.7771M16.9529 5.58647C16.9533 5.87129 17.0383 6.14958 17.1969 6.38613C17.3556 6.62268 17.5808 6.80688 17.8441 6.91541C18.1075 7.02395 18.3971 7.05196 18.6763 6.99589C18.9556 6.93982 19.2119 6.8022 19.413 6.60043C19.614 6.39866 19.7507 6.1418 19.8057 5.86235C19.8608 5.58289 19.8317 5.29339 19.7222 5.03045C19.6127 4.76752 19.4277 4.54296 19.1905 4.38518C18.9534 4.22741 18.6748 4.1435 18.39 4.14407C18.0082 4.14483 17.6423 4.29721 17.3728 4.5677C17.1033 4.83819 16.9522 5.20464 16.9529 5.58647ZM5.83847 12.012C5.84519 15.4152 8.60903 18.1677 12.0115 18.1613C15.414 18.1548 18.1685 15.3912 18.162 11.988C18.1555 8.58479 15.3909 5.83151 11.988 5.83823C8.58503 5.84495 5.83199 8.60927 5.83847 12.012ZM7.99991 12.0077C7.99834 11.2165 8.23141 10.4427 8.66965 9.78401C9.10788 9.12534 9.73159 8.6114 10.4619 8.3072C11.1922 8.003 11.9963 7.92219 12.7726 8.075C13.5488 8.22781 14.2623 8.60736 14.8229 9.16568C15.3834 9.72399 15.7658 10.436 15.9216 11.2116C16.0775 11.9872 15.9999 12.7917 15.6986 13.5232C15.3973 14.2547 14.8858 14.8805 14.2289 15.3213C13.572 15.7621 12.799 15.9983 12.0079 15.9998C11.4826 16.0009 10.9622 15.8985 10.4765 15.6985C9.99073 15.4985 9.54915 15.2047 9.17696 14.834C8.80477 14.4633 8.50926 14.0228 8.3073 13.5379C8.10534 13.053 8.00088 12.533 7.99991 12.0077Z" fill="#3C3C43" fill-opacity="0.6"/>
</g>
<defs>
<clipPath id="clip0_105_1641">
<rect width="24" height="24" fill="white"/>
</clipPath>
</defs>
</svg>
