<svg width="29" height="24" viewBox="0 0 29 24" fill="none" xmlns="http://www.w3.org/2000/svg">
<g id="LinkedIn svg" clip-path="url(#clip0_105_1637)">
<path id="Path 2525" d="M27.6049 22.4507C27.6659 22.4513 27.7264 22.4395 27.7825 22.416C27.8387 22.3925 27.8895 22.3578 27.9316 22.3141C27.9737 22.2704 28.0062 22.2186 28.0273 22.1619C28.0483 22.1052 28.0573 22.0448 28.0538 21.9845C28.0538 21.6538 27.8523 21.4958 27.439 21.4958H26.7711V23.227H27.0223V22.4724H27.331L27.3381 22.4816L27.8171 23.227H28.0857L27.5703 22.4555L27.6049 22.4507ZM27.3144 22.2773H27.0231V21.692H27.3923C27.583 21.692 27.8004 21.7229 27.8004 21.9702C27.8004 22.2545 27.5804 22.2773 27.3129 22.2773" fill="#3C3C43" fill-opacity="0.6"/>
<path id="Path 2520" d="M21.0522 20.2813H17.4902V14.758C17.4902 13.4409 17.4665 11.7454 15.6376 11.7454C13.7824 11.7454 13.4986 13.1804 13.4986 14.6621V20.281H9.93654V8.92279H13.3561V10.475H13.4039C13.7462 9.89564 14.2407 9.41904 14.8348 9.09595C15.4289 8.77285 16.1005 8.61537 16.7778 8.64027C20.3881 8.64027 21.0537 10.9915 21.0537 14.0504L21.0522 20.2813ZM5.91742 7.3702C5.50859 7.37028 5.10891 7.25031 4.76894 7.02548C4.42897 6.80064 4.16399 6.48103 4.00747 6.10707C3.85095 5.73311 3.80993 5.32159 3.88962 4.92455C3.9693 4.52751 4.16611 4.16279 4.45515 3.8765C4.74418 3.59021 5.11247 3.39521 5.51343 3.31616C5.91438 3.23712 6.33 3.27758 6.70774 3.43242C7.08548 3.58727 7.40836 3.84954 7.63555 4.18608C7.86275 4.52262 7.98406 4.91831 7.98413 5.32312C7.98418 5.5919 7.93075 5.85805 7.82692 6.10639C7.72308 6.35473 7.57088 6.58038 7.37897 6.77047C7.18705 6.96056 6.95919 7.11136 6.70842 7.21426C6.45765 7.31717 6.18887 7.37016 5.91742 7.3702ZM7.69842 20.2813H4.1327V8.92279H7.69842V20.2813ZM22.8281 0.00149964H2.3428C1.87785 -0.00369572 1.42981 0.174097 1.09717 0.495808C0.764537 0.81752 0.574522 1.25683 0.568848 1.7172V22.0848C0.574328 22.5454 0.764231 22.985 1.09685 23.3071C1.42948 23.6291 1.87762 23.8073 2.3428 23.8024H22.8281C23.2942 23.8082 23.7436 23.6305 24.0775 23.3085C24.4114 22.9865 24.6026 22.5464 24.6091 22.0848V1.71573C24.6024 1.25445 24.4111 0.814637 24.0772 0.492934C23.7432 0.17123 23.2939 -0.00605431 22.8281 2.94947e-05" fill="#3C3C43" fill-opacity="0.6"/>
<path id="Path 2526" d="M27.3448 20.7247C26.9114 20.7289 26.4973 20.9027 26.1931 21.2084C25.8888 21.514 25.7192 21.9265 25.7213 22.3556C25.7234 22.7847 25.897 23.1955 26.2042 23.4983C26.5114 23.801 26.9272 23.9709 27.3606 23.9709C27.794 23.9709 28.2097 23.801 28.5169 23.4983C28.8241 23.1955 28.9977 22.7847 28.9998 22.3556C29.0019 21.9265 28.8323 21.514 28.528 21.2084C28.2238 20.9027 27.8097 20.7289 27.3763 20.7247H27.3448ZM27.3448 23.7851C27.0605 23.7898 26.7813 23.7109 26.5423 23.5584C26.3033 23.4059 26.1154 23.1867 26.0022 22.9285C25.8891 22.6702 25.8558 22.3846 25.9066 22.1076C25.9574 21.8307 26.09 21.5748 26.2877 21.3725C26.4853 21.1702 26.7391 21.0304 27.017 20.9709C27.2949 20.9114 27.5843 20.9348 27.8488 21.0382C28.1132 21.1416 28.3407 21.3203 28.5026 21.5517C28.6644 21.7831 28.7533 22.0568 28.7581 22.3383C28.7581 22.3464 28.7581 22.3541 28.7581 22.3622C28.766 22.7314 28.6256 23.0886 28.3676 23.3553C28.1096 23.622 27.7551 23.7763 27.3823 23.7843H27.3452" fill="#3C3C43" fill-opacity="0.6"/>
</g>
<defs>
<clipPath id="clip0_105_1637">
<rect width="28.4308" height="24" fill="white" transform="translate(0.569214)"/>
</clipPath>
</defs>
</svg>
