<svg width="42" height="64" viewBox="0 0 42 64" fill="none" xmlns="http://www.w3.org/2000/svg">
<path d="M10.5 64.0003C16.296 64.0003 21 59.2217 21 53.3337V42.667H10.5C4.704 42.667 0 47.4457 0 53.3337C0 59.2217 4.704 64.0003 10.5 64.0003Z" fill="#0ACF83"/>
<path d="M0 31.9997C0 26.1117 4.704 21.333 10.5 21.333H21V42.6663H10.5C4.704 42.6663 0 37.8877 0 31.9997Z" fill="#A259FF"/>
<path d="M0 10.6667C0 4.77867 4.704 0 10.5 0H21V21.3333H10.5C4.704 21.3333 0 16.5547 0 10.6667Z" fill="#F24E1E"/>
<path d="M21.0002 0H31.5002C37.2962 0 42.0002 4.77867 42.0002 10.6667C42.0002 16.5547 37.2962 21.3333 31.5002 21.3333H21.0002V0Z" fill="#FF7262"/>
<path d="M42.0002 31.9997C42.0002 37.8877 37.2962 42.6663 31.5002 42.6663C25.7042 42.6663 21.0002 37.8877 21.0002 31.9997C21.0002 26.1117 25.7042 21.333 31.5002 21.333C37.2962 21.333 42.0002 26.1117 42.0002 31.9997Z" fill="#1ABCFE"/>
</svg>
