<svg width="1512" height="792" viewBox="0 0 1512 792" fill="none" xmlns="http://www.w3.org/2000/svg">
<mask id="mask0_157_2250" style="mask-type:alpha" maskUnits="userSpaceOnUse" x="-158" y="-91" width="1828" height="1105">
<ellipse cx="756" cy="461.5" rx="914" ry="552.5" fill="url(#paint0_radial_157_2250)"/>
</mask>
<g mask="url(#mask0_157_2250)">
<path d="M1627.45 93.9994C1627.45 396.657 1546.83 670.639 1416.52 868.942C1286.2 1067.25 1106.23 1189.82 907.503 1189.82C708.779 1189.82 528.804 1067.25 398.486 868.942C268.172 670.639 187.554 396.657 187.554 93.9994C187.554 -208.658 268.172 -482.64 398.486 -680.943C528.804 -879.25 708.779 -1001.82 907.503 -1001.82C1106.23 -1001.82 1286.2 -879.25 1416.52 -680.943C1546.83 -482.64 1627.45 -208.658 1627.45 93.9994Z" stroke="url(#paint1_angular_157_2250)"/>
<path d="M907.503 -544.612C1248.71 -544.612 1557.59 -473.09 1781.15 -357.477C2004.73 -241.851 2142.85 -82.2039 2142.85 93.9994C2142.85 270.203 2004.73 429.85 1781.15 545.476C1557.59 661.088 1248.71 732.611 907.503 732.611C566.296 732.611 257.416 661.088 33.8566 545.476C-189.728 429.85 -327.844 270.203 -327.844 93.9994C-327.844 -82.2039 -189.728 -241.851 33.8566 -357.477C257.416 -473.09 566.296 -544.612 907.503 -544.612Z" stroke="url(#paint2_angular_157_2250)"/>
<path d="M1416.56 -357.589C1657.82 -143.567 1819.21 100.75 1885.14 322.724C1951.06 544.712 1921.49 744.258 1781 868.885C1640.51 993.512 1415.57 1019.75 1165.33 961.263C915.108 902.782 639.699 759.61 398.439 545.588C157.179 331.566 -4.21438 87.2491 -70.1375 -134.726C-136.064 -356.713 -106.491 -556.259 33.9971 -680.886C174.485 -805.513 399.426 -831.748 649.665 -773.264C899.889 -714.783 1175.3 -571.611 1416.56 -357.589Z" stroke="url(#paint3_angular_157_2250)"/>
<path d="M1416.56 545.588C1175.3 759.61 899.892 902.782 649.668 961.263C399.429 1019.75 174.488 993.512 33.9997 868.885C-106.488 744.258 -136.062 544.712 -70.1349 322.724C-4.21179 100.75 157.181 -143.567 398.441 -357.589C639.701 -571.611 915.111 -714.783 1165.34 -773.264C1415.57 -831.748 1640.52 -805.513 1781 -680.886C1921.49 -556.259 1951.06 -356.713 1885.14 -134.726C1819.21 87.2491 1657.82 331.566 1416.56 545.588Z" stroke="url(#paint4_angular_157_2250)"/>
<path d="M1602.92 259.299C1514.61 551.646 1356.81 797.784 1173.07 959.411C989.338 1121.04 779.735 1198.11 587.788 1152.49C395.84 1106.86 257.76 947.147 189.739 725.674C121.721 504.206 123.787 221.048 212.09 -71.2987C300.394 -363.646 458.202 -609.784 641.934 -771.411C825.67 -933.042 1035.27 -1010.11 1227.22 -964.488C1419.17 -918.862 1557.25 -759.147 1625.27 -537.674C1693.29 -316.207 1691.22 -33.0484 1602.92 259.299Z" stroke="url(#paint5_angular_157_2250)"/>
<path d="M1093.82 -522.856C1423.4 -444.515 1700.89 -304.512 1883.1 -141.51C2065.33 21.5082 2152.16 207.428 2100.75 377.634C2049.34 547.839 1869.35 670.335 1619.65 730.685C1369.98 791.029 1050.76 789.196 721.182 710.856C391.603 632.516 114.117 492.512 -68.093 329.511C-250.322 166.492 -337.158 -19.4276 -285.747 -189.633C-234.336 -359.839 -54.3442 -482.334 195.354 -542.685C445.025 -603.029 764.246 -601.196 1093.82 -522.856Z" stroke="url(#paint6_angular_157_2250)"/>
<path d="M1530.98 -225.329C1701.57 36.7875 1786.18 309.828 1785.1 539.37C1784.01 768.92 1697.23 954.888 1525.15 1043.02C1353.07 1131.16 1128.13 1104.84 903.489 990.903C678.858 876.966 454.609 675.443 284.017 413.327C113.425 151.211 28.8141 -121.83 29.9 -351.372C30.986 -580.922 117.767 -766.89 289.848 -855.025C461.93 -943.16 686.87 -916.845 911.509 -802.904C1136.14 -688.968 1360.39 -487.445 1530.98 -225.329Z" stroke="url(#paint7_angular_157_2250)"/>
<path d="M1267.45 647.068C971.963 798.407 664.159 873.469 405.393 872.506C146.606 871.542 -63.0027 794.55 -162.33 641.933C-261.658 489.315 -232.016 289.787 -103.563 90.4913C24.8795 -108.788 252.06 -307.729 547.548 -459.068C843.036 -610.408 1150.84 -685.47 1409.61 -684.506C1668.39 -683.543 1878 -606.551 1977.33 -453.934C2076.66 -301.316 2047.02 -101.788 1918.56 97.508C1790.12 296.788 1562.94 495.728 1267.45 647.068Z" stroke="url(#paint8_angular_157_2250)"/>
<path d="M1602.92 259.299C1514.61 551.646 1356.81 797.784 1173.07 959.411C989.338 1121.04 779.735 1198.11 587.788 1152.49C395.84 1106.86 257.76 947.147 189.739 725.674C121.721 504.206 123.787 221.048 212.09 -71.2987C300.394 -363.646 458.202 -609.784 641.934 -771.411C825.67 -933.042 1035.27 -1010.11 1227.22 -964.488C1419.17 -918.862 1557.25 -759.147 1625.27 -537.674C1693.29 -316.207 1691.22 -33.0484 1602.92 259.299Z" stroke="url(#paint9_angular_157_2250)"/>
<path d="M1093.82 -522.856C1423.4 -444.515 1700.89 -304.512 1883.1 -141.51C2065.33 21.5082 2152.16 207.428 2100.75 377.634C2049.34 547.839 1869.35 670.335 1619.65 730.685C1369.98 791.029 1050.76 789.196 721.182 710.856C391.603 632.516 114.117 492.512 -68.093 329.511C-250.322 166.492 -337.158 -19.4276 -285.747 -189.633C-234.336 -359.839 -54.3442 -482.334 195.354 -542.685C445.025 -603.029 764.246 -601.196 1093.82 -522.856Z" stroke="url(#paint10_angular_157_2250)"/>
<path d="M1530.98 -225.329C1701.57 36.7875 1786.18 309.828 1785.1 539.37C1784.01 768.92 1697.23 954.888 1525.15 1043.02C1353.07 1131.16 1128.13 1104.84 903.489 990.903C678.858 876.966 454.609 675.443 284.017 413.327C113.425 151.211 28.8141 -121.83 29.9 -351.372C30.986 -580.922 117.767 -766.89 289.848 -855.025C461.93 -943.16 686.87 -916.845 911.509 -802.904C1136.14 -688.968 1360.39 -487.445 1530.98 -225.329Z" stroke="url(#paint11_angular_157_2250)"/>
<path d="M1267.45 647.068C971.963 798.407 664.159 873.469 405.393 872.506C146.606 871.542 -63.0027 794.55 -162.33 641.933C-261.658 489.315 -232.016 289.787 -103.563 90.4913C24.8795 -108.788 252.06 -307.729 547.548 -459.068C843.036 -610.408 1150.84 -685.47 1409.61 -684.506C1668.39 -683.543 1878 -606.551 1977.33 -453.934C2076.66 -301.316 2047.02 -101.788 1918.56 97.508C1790.12 296.788 1562.94 495.728 1267.45 647.068Z" stroke="url(#paint12_angular_157_2250)"/>
<path d="M1530.99 413.329C1360.39 675.445 1136.15 876.968 911.515 990.904C686.875 1104.85 461.935 1131.16 289.854 1043.02C117.772 954.89 30.9914 768.922 29.9054 539.372C28.8195 309.83 113.43 36.7892 284.022 -225.327C454.615 -487.443 678.863 -688.966 903.494 -802.903C1128.13 -916.844 1353.07 -943.158 1525.16 -855.023C1697.24 -766.888 1784.02 -580.92 1785.1 -351.37C1786.19 -121.828 1701.58 151.213 1530.99 413.329Z" stroke="url(#paint13_angular_157_2250)"/>
<path d="M1267.45 -459.067C1562.94 -307.728 1790.12 -108.787 1918.56 90.4922C2047.02 289.788 2076.66 489.316 1977.33 641.934C1878 794.551 1668.39 871.543 1409.61 872.507C1150.84 873.47 843.037 798.408 547.549 647.069C252.061 495.729 24.8807 296.788 -103.562 97.5089C-232.015 -101.787 -261.657 -301.315 -162.329 -453.933C-63.0015 -606.55 146.607 -683.542 405.394 -684.505C664.16 -685.469 971.964 -610.407 1267.45 -459.067Z" stroke="url(#paint14_angular_157_2250)"/>
<path d="M1602.91 -71.2999C1691.21 221.047 1693.28 504.205 1625.26 725.673C1557.24 947.145 1419.16 1106.86 1227.21 1152.49C1035.27 1198.11 825.663 1121.04 641.927 959.41C458.195 797.783 300.386 551.644 212.083 259.298C123.78 -33.0495 121.714 -316.208 189.732 -537.675C257.752 -759.148 395.833 -918.863 587.781 -964.489C779.728 -1010.11 989.33 -933.043 1173.07 -771.412C1356.8 -609.785 1514.61 -363.647 1602.91 -71.2999Z" stroke="url(#paint15_angular_157_2250)"/>
<path d="M1093.82 710.855C764.239 789.196 445.019 791.028 195.347 730.684C-54.3507 670.334 -234.343 547.839 -285.753 377.633C-337.164 207.427 -250.329 21.5075 -68.0995 -141.511C114.111 -304.513 391.597 -444.516 721.175 -522.856C1050.75 -601.197 1369.97 -603.029 1619.65 -542.685C1869.34 -482.335 2049.34 -359.84 2100.75 -189.634C2152.16 -19.4283 2065.32 166.491 1883.09 329.51C1700.88 492.512 1423.4 632.515 1093.82 710.855Z" stroke="url(#paint16_angular_157_2250)"/>
<path d="M1626.77 66.1411C1641.65 368.511 1574.58 645.352 1454.14 848.508C1333.7 1051.67 1159.92 1181.09 961.384 1188.78C762.85 1196.47 577.019 1080.98 437.075 887.901C297.133 694.829 203.12 424.227 188.238 121.858C173.357 -180.512 240.426 -457.353 360.866 -660.509C481.308 -863.67 655.085 -993.091 853.62 -1000.78C1052.15 -1008.47 1237.99 -892.978 1377.93 -699.902C1517.87 -506.83 1611.88 -236.229 1626.77 66.1411Z" stroke="url(#paint17_angular_157_2250)"/>
<path d="M876.102 -544.005C1216.98 -557.208 1529.09 -497.705 1758.12 -390.853C1987.18 -283.989 2133.01 -129.838 2141.67 46.1978C2150.34 222.234 2020.2 387.073 1802.52 511.24C1584.85 635.394 1279.79 718.8 938.904 732.003C598.022 745.206 285.92 685.704 56.8879 578.852C-172.17 471.987 -318.004 317.837 -326.668 141.801C-335.332 -34.2348 -205.198 -199.074 12.4891 -323.242C230.151 -447.395 535.22 -530.802 876.102 -544.005Z" stroke="url(#paint18_angular_157_2250)"/>
<path d="M1393.87 -376.855C1645.42 -172.372 1818.68 65.4685 1895.45 284.682C1972.23 503.909 1952.5 704.407 1818.27 834.349C1684.05 964.291 1460.61 999.206 1207.74 950.46C954.874 901.718 672.685 769.338 421.13 564.854C169.575 360.371 -3.6782 122.531 -80.4535 -96.6826C-157.234 -315.91 -137.498 -516.408 -3.27492 -646.35C130.949 -776.292 354.383 -811.207 607.262 -762.461C860.124 -713.719 1142.31 -581.339 1393.87 -376.855Z" stroke="url(#paint19_angular_157_2250)"/>
<path d="M1438.29 525.462C1207.78 748.615 939.673 902.307 692.563 970.414C445.44 1038.52 219.421 1021.02 72.9357 901.946C-73.5496 782.871 -112.906 584.657 -57.9571 360.332C-3.01161 136.018 146.214 -114.31 376.72 -337.463C607.226 -560.616 875.332 -714.308 1122.44 -782.415C1369.57 -850.526 1595.58 -833.022 1742.07 -713.947C1888.55 -594.872 1927.91 -396.658 1872.96 -172.333C1818.02 51.9805 1668.79 302.309 1438.29 525.462Z" stroke="url(#paint20_angular_157_2250)"/>
<path d="M1610.38 232.233C1536.54 527.718 1390.98 779.728 1215.38 948.31C1039.76 1116.9 834.148 1202.01 640.138 1163.85C446.129 1125.7 300.326 971.474 221.481 752.845C142.638 534.22 130.778 251.252 204.623 -44.2326C278.467 -339.718 424.022 -591.728 599.631 -760.31C775.245 -928.896 980.859 -1014.01 1174.87 -975.85C1368.88 -937.695 1514.68 -783.474 1593.53 -564.845C1672.37 -346.22 1684.23 -63.2524 1610.38 232.233Z" stroke="url(#paint21_angular_157_2250)"/>
<path d="M1063.32 -529.477C1396.44 -463.964 1680.54 -334.831 1870.59 -179.035C2060.67 -23.2224 2156.56 159.16 2113.57 331.191C2070.58 503.222 1896.78 632.566 1650.29 702.521C1403.82 772.469 1084.81 782.99 751.694 717.477C418.576 651.964 134.47 522.831 -55.5824 367.035C-245.655 211.222 -341.548 28.84 -298.556 -143.191C-255.564 -315.222 -81.7676 -444.566 164.726 -514.521C411.194 -584.469 730.201 -594.99 1063.32 -529.477Z" stroke="url(#paint22_angular_157_2250)"/>
<path d="M1514.69 -249.149C1698.01 6.11752 1795.96 275.626 1806.16 504.992C1816.37 734.367 1738.81 923.514 1571.23 1018.22C1403.65 1112.93 1177.63 1095.35 947.601 990.205C717.58 885.069 483.635 692.415 300.316 437.148C116.997 181.881 19.0409 -87.627 8.83905 -316.993C-1.36322 -546.369 76.1912 -735.516 243.773 -830.224C411.354 -924.932 637.372 -907.348 867.402 -802.207C1097.42 -697.07 1331.37 -504.416 1514.69 -249.149Z" stroke="url(#paint23_angular_157_2250)"/>
<path d="M1294.3 632.615C1006.54 795.244 702.72 882.145 444.154 891.195C185.567 900.246 -27.6297 831.439 -134.369 682.808C-241.109 534.176 -221.304 333.689 -102.774 129.614C15.7473 -74.4453 232.929 -281.986 520.693 -444.615C808.457 -607.245 1112.28 -694.145 1370.84 -703.195C1629.43 -712.246 1842.63 -643.44 1949.37 -494.808C2056.11 -346.176 2036.3 -145.69 1917.77 58.3857C1799.25 262.445 1582.07 469.986 1294.3 632.615Z" stroke="url(#paint24_angular_157_2250)"/>
<path d="M1610.38 232.233C1536.54 527.718 1390.98 779.728 1215.38 948.31C1039.76 1116.9 834.148 1202.01 640.138 1163.85C446.129 1125.7 300.326 971.474 221.481 752.845C142.638 534.22 130.778 251.252 204.623 -44.2326C278.467 -339.718 424.022 -591.728 599.631 -760.31C775.245 -928.896 980.859 -1014.01 1174.87 -975.85C1368.88 -937.695 1514.68 -783.474 1593.53 -564.845C1672.37 -346.22 1684.23 -63.2524 1610.38 232.233Z" stroke="url(#paint25_angular_157_2250)"/>
<path d="M1063.32 -529.477C1396.44 -463.964 1680.54 -334.831 1870.59 -179.035C2060.67 -23.2224 2156.56 159.16 2113.57 331.191C2070.58 503.222 1896.78 632.566 1650.29 702.521C1403.82 772.469 1084.81 782.99 751.694 717.477C418.576 651.964 134.47 522.831 -55.5824 367.035C-245.655 211.222 -341.548 28.84 -298.556 -143.191C-255.564 -315.222 -81.7676 -444.566 164.726 -514.521C411.194 -584.469 730.201 -594.99 1063.32 -529.477Z" stroke="url(#paint26_angular_157_2250)"/>
<path d="M1514.69 -249.149C1698.01 6.11752 1795.96 275.626 1806.16 504.992C1816.37 734.367 1738.81 923.514 1571.23 1018.22C1403.65 1112.93 1177.63 1095.35 947.601 990.205C717.58 885.069 483.635 692.415 300.316 437.148C116.997 181.881 19.0409 -87.627 8.83905 -316.993C-1.36322 -546.369 76.1912 -735.516 243.773 -830.224C411.354 -924.932 637.372 -907.348 867.402 -802.207C1097.42 -697.07 1331.37 -504.416 1514.69 -249.149Z" stroke="url(#paint27_angular_157_2250)"/>
<path d="M1294.3 632.615C1006.54 795.244 702.72 882.145 444.154 891.195C185.567 900.246 -27.6297 831.439 -134.369 682.808C-241.109 534.176 -221.304 333.689 -102.774 129.614C15.7473 -74.4453 232.929 -281.986 520.693 -444.615C808.457 -607.245 1112.28 -694.145 1370.84 -703.195C1629.43 -712.246 1842.63 -643.44 1949.37 -494.808C2056.11 -346.176 2036.3 -145.69 1917.77 58.3857C1799.25 262.445 1582.07 469.986 1294.3 632.615Z" stroke="url(#paint28_angular_157_2250)"/>
<path d="M1546.1 388.9C1388.56 657.367 1174.43 867.374 955.618 989.894C736.796 1112.42 513.363 1147.41 337.109 1066.02C160.854 984.626 65.0126 802.191 52.6406 572.902C40.2691 343.622 111.373 67.5681 268.914 -200.899C426.455 -469.366 640.58 -679.373 859.395 -801.893C1078.22 -924.417 1301.65 -959.412 1477.9 -878.018C1654.16 -796.625 1750 -614.19 1762.37 -384.901C1774.74 -155.621 1703.64 120.433 1546.1 388.9Z" stroke="url(#paint29_angular_157_2250)"/>
<path d="M1239.91 -472.467C1542.56 -332.705 1779.31 -142.744 1917.43 51.3763C2055.56 245.514 2094.98 443.704 2003.26 600.016C1911.53 756.329 1705.91 841.359 1447.41 852.335C1188.94 863.311 877.737 800.231 575.088 660.468C272.439 520.706 35.6918 330.745 -102.428 136.625C-240.559 -57.5126 -279.982 -255.703 -188.255 -412.015C-96.5277 -568.328 109.093 -653.358 367.589 -664.334C626.062 -675.31 937.265 -612.23 1239.91 -472.467Z" stroke="url(#paint30_angular_157_2250)"/>
<path d="M1594.12 -98.0508C1696.72 190.602 1712.7 473.411 1655.64 697.3C1598.57 921.195 1468.48 1086.1 1278.96 1139.11C1089.44 1192.12 876.248 1123.23 684.738 968.864C493.234 814.5 323.472 574.702 220.878 286.049C118.283 -2.6036 102.296 -285.413 159.36 -509.302C216.426 -733.197 346.522 -898.102 536.041 -951.111C725.561 -1004.12 938.753 -935.233 1130.26 -780.866C1321.77 -626.502 1491.53 -386.703 1594.12 -98.0508Z" stroke="url(#paint31_angular_157_2250)"/>
<path d="M1123.97 703.06C798.56 794.079 479.733 808.262 227.333 757.637C-25.0937 707.006 -210.939 591.592 -270.671 423.536C-330.402 255.479 -252.79 66.3756 -78.7509 -103.538C95.2707 -273.435 365.608 -424.042 691.02 -515.061C1016.43 -606.079 1335.26 -620.263 1587.66 -569.637C1840.09 -519.007 2025.93 -403.593 2085.66 -235.536C2145.39 -67.4795 2067.78 121.624 1893.74 291.538C1719.72 461.435 1449.38 612.042 1123.97 703.06Z" stroke="url(#paint32_angular_157_2250)"/>
<path d="M1624.71 38.3358C1654.45 339.842 1601.05 619.015 1490.72 826.639C1380.38 1034.27 1213.13 1170.29 1015.16 1185.65C817.196 1201.02 625.863 1092.83 476.558 905.349C327.256 717.876 220.027 451.169 190.292 149.663C160.556 -151.843 213.949 -431.016 324.285 -638.64C434.624 -846.268 601.872 -982.289 799.839 -997.654C997.806 -1013.02 1189.14 -904.827 1338.44 -717.35C1487.75 -529.877 1594.97 -263.17 1624.71 38.3358Z" stroke="url(#paint33_angular_157_2250)"/>
<path d="M844.76 -542.183C1184.67 -568.564 1499.4 -521.194 1733.47 -423.306C1967.56 -325.407 2120.84 -177.046 2138.15 -1.51286C2155.46 174.021 2033.55 343.739 1822.18 476.211C1610.83 608.669 1310.15 703.801 970.244 730.181C630.336 756.562 315.605 709.193 81.5375 611.305C-152.556 513.406 -305.832 365.045 -323.144 189.511C-340.455 13.9778 -218.55 -155.74 -7.17558 -288.213C204.175 -420.67 504.852 -515.802 844.76 -542.183Z" stroke="url(#paint34_angular_157_2250)"/>
<path d="M1370.25 -395.225C1631.62 -200.669 1816.41 30.2413 1903.89 246.276C1991.38 462.325 1981.52 663.394 1853.81 798.404C1726.11 933.413 1504.61 976.942 1249.57 938.027C994.55 899.115 706.12 777.78 444.749 583.224C183.378 388.668 -1.40616 157.758 -88.8876 -58.2768C-176.375 -274.326 -166.515 -475.395 -38.8118 -610.404C88.8919 -745.414 310.395 -788.942 565.432 -750.028C820.451 -711.116 1108.88 -589.781 1370.25 -395.225Z" stroke="url(#paint35_angular_157_2250)"/>
<path d="M1459 504.514C1239.68 736.373 979.391 900.293 735.866 977.897C492.329 1055.5 265.663 1046.76 113.459 933.468C-38.745 820.172 -87.8085 623.669 -43.9428 397.432C-0.0794236 171.207 136.695 -84.6561 356.008 -316.515C575.321 -548.374 835.614 -712.294 1079.14 -789.898C1322.68 -867.506 1549.34 -858.765 1701.55 -745.469C1853.75 -632.174 1902.81 -435.67 1858.95 -209.433C1815.08 16.7917 1678.31 272.655 1459 504.514Z" stroke="url(#paint36_angular_157_2250)"/>
<path d="M1616.52 204.903C1557.27 502.964 1424.25 760.366 1257.09 935.582C1089.94 1110.8 888.704 1203.79 693.001 1173.18C497.299 1142.56 344.052 994.131 254.532 778.762C165.014 563.397 139.252 281.157 198.497 -16.9034C257.742 -314.964 390.766 -572.366 557.919 -747.583C725.076 -922.803 926.309 -1015.79 1122.01 -985.177C1317.71 -954.565 1470.96 -806.132 1560.48 -590.762C1650 -375.397 1675.76 -93.1574 1616.52 204.903Z" stroke="url(#paint37_angular_157_2250)"/>
<path d="M1032.51 -534.912C1368.53 -482.351 1658.72 -364.334 1856.25 -216.04C2053.8 -67.7303 2158.57 110.768 2124.08 284.297C2089.59 457.826 1922.32 593.772 1679.5 673.199C1436.7 752.617 1118.52 775.472 782.495 722.912C446.473 670.351 156.287 552.334 -41.2453 404.04C-238.799 255.73 -343.568 77.2322 -309.076 -96.2972C-274.584 -269.827 -107.314 -405.772 135.507 -485.199C378.3 -564.617 696.487 -587.473 1032.51 -534.912Z" stroke="url(#paint38_angular_157_2250)"/>
<path d="M1497.23 -272.316C1692.93 -24.3851 1804.05 241.077 1825.52 469.831C1846.99 698.595 1778.81 890.561 1616.05 991.662C1453.28 1092.76 1226.62 1083.94 991.635 987.802C756.663 891.665 513.467 708.246 317.77 460.315C122.072 212.384 10.9573 -53.0786 -10.513 -281.832C-31.9842 -510.596 36.1968 -702.563 198.959 -803.663C361.721 -904.764 588.387 -895.943 823.369 -799.803C1058.34 -703.667 1301.54 -520.248 1497.23 -272.316Z" stroke="url(#paint39_angular_157_2250)"/>
<path d="M1320.42 617.137C1040.93 790.746 741.674 889.319 483.799 908.366C225.906 927.415 9.52658 866.924 -104.422 722.561C-218.371 578.198 -208.441 377.134 -100.059 168.668C8.31515 -39.7821 215.084 -255.529 494.577 -429.137C774.07 -602.746 1073.33 -701.32 1331.2 -720.367C1589.09 -739.415 1805.47 -678.924 1919.42 -534.561C2033.37 -390.198 2023.44 -189.135 1915.06 19.3313C1806.68 227.782 1599.92 443.528 1320.42 617.137Z" stroke="url(#paint40_angular_157_2250)"/>
<path d="M1616.52 204.903C1557.27 502.964 1424.25 760.366 1257.09 935.582C1089.94 1110.8 888.704 1203.79 693.001 1173.18C497.299 1142.56 344.052 994.131 254.532 778.762C165.014 563.397 139.252 281.157 198.497 -16.9034C257.742 -314.964 390.766 -572.366 557.919 -747.583C725.076 -922.803 926.309 -1015.79 1122.01 -985.177C1317.71 -954.565 1470.96 -806.132 1560.48 -590.762C1650 -375.397 1675.76 -93.1574 1616.52 204.903Z" stroke="url(#paint41_angular_157_2250)"/>
<path d="M1032.51 -534.912C1368.53 -482.351 1658.72 -364.334 1856.25 -216.04C2053.8 -67.7303 2158.57 110.768 2124.08 284.297C2089.59 457.826 1922.32 593.772 1679.5 673.199C1436.7 752.617 1118.52 775.472 782.495 722.912C446.473 670.351 156.287 552.334 -41.2453 404.04C-238.799 255.73 -343.568 77.2322 -309.076 -96.2972C-274.584 -269.827 -107.314 -405.772 135.507 -485.199C378.3 -564.617 696.487 -587.473 1032.51 -534.912Z" stroke="url(#paint42_angular_157_2250)"/>
<path d="M1497.23 -272.316C1692.93 -24.3851 1804.05 241.077 1825.52 469.831C1846.99 698.595 1778.81 890.561 1616.05 991.662C1453.28 1092.76 1226.62 1083.94 991.635 987.802C756.663 891.665 513.467 708.246 317.77 460.315C122.072 212.384 10.9573 -53.0786 -10.513 -281.832C-31.9842 -510.596 36.1968 -702.563 198.959 -803.663C361.721 -904.764 588.387 -895.943 823.369 -799.803C1058.34 -703.667 1301.54 -520.248 1497.23 -272.316Z" stroke="url(#paint43_angular_157_2250)"/>
<path d="M1320.42 617.137C1040.93 790.746 741.674 889.319 483.799 908.366C225.906 927.415 9.52658 866.924 -104.422 722.561C-218.371 578.198 -208.441 377.134 -100.059 168.668C8.31515 -39.7821 215.084 -255.529 494.577 -429.137C774.07 -602.746 1073.33 -701.32 1331.2 -720.367C1589.09 -739.415 1805.47 -678.924 1919.42 -534.561C2033.37 -390.198 2023.44 -189.135 1915.06 19.3313C1806.68 227.782 1599.92 443.528 1320.42 617.137Z" stroke="url(#paint44_angular_157_2250)"/>
<path d="M1559.99 363.91C1415.8 638.216 1212.2 856.308 999.624 987.178C787.036 1118.05 565.535 1161.66 385.444 1087.16C205.352 1012.67 100.632 834.112 76.9972 605.522C53.3636 376.939 110.826 98.3978 255.016 -175.909C399.206 -450.215 602.8 -668.307 815.381 -799.177C1027.97 -930.051 1249.47 -973.66 1429.56 -899.163C1609.65 -824.665 1714.37 -646.111 1738.01 -417.521C1761.64 -188.938 1704.18 89.6035 1559.99 363.91Z" stroke="url(#paint45_angular_157_2250)"/>
<path d="M1211.75 -484.789C1520.98 -356.87 1766.84 -176.25 1914.38 12.3412C2061.92 200.95 2111.05 397.425 2027.1 557.135C1943.15 716.846 1741.9 809.752 1484.19 830.72C1226.5 851.687 912.495 800.709 603.261 672.79C294.027 544.872 48.1644 364.252 -99.369 175.66C-246.916 -12.949 -296.044 -209.424 -212.092 -369.134C-128.14 -528.844 73.1022 -621.75 330.814 -642.719C588.502 -663.686 902.512 -612.707 1211.75 -484.789Z" stroke="url(#paint46_angular_157_2250)"/>
<path d="M1584.02 -124.436C1700.71 159.973 1730.59 441.895 1684.59 667.78C1638.59 893.67 1516.72 1063.45 1329.99 1123.74C1143.26 1184.03 926.886 1123.46 727.967 976.652C529.054 829.845 347.662 596.844 230.972 312.435C114.281 28.0258 84.4038 -253.897 130.405 -479.781C176.407 -705.672 298.271 -875.453 485.002 -935.744C671.732 -996.036 888.108 -935.465 1087.03 -788.654C1285.94 -641.847 1467.33 -408.845 1584.02 -124.436Z" stroke="url(#paint47_angular_157_2250)"/>
<path d="M1153.72 694.106C833.089 797.63 515.265 824.136 260.616 783.325C5.94132 742.511 -185.404 634.399 -253.343 468.811C-321.282 303.223 -253.041 111.295 -87.523 -65.1902C77.9786 -241.659 340.653 -402.583 661.279 -506.106C981.906 -609.63 1299.73 -636.136 1554.38 -595.326C1809.05 -554.511 2000.4 -446.399 2068.34 -280.811C2136.28 -115.223 2068.04 76.7042 1902.52 253.19C1737.02 429.658 1474.34 590.583 1153.72 694.106Z" stroke="url(#paint48_angular_157_2250)"/>
<path d="M1621.29 10.6364C1665.82 310.705 1626.21 591.679 1526.19 803.375C1426.16 1015.08 1265.76 1157.44 1068.74 1180.45C871.718 1203.46 675.248 1102.77 516.866 921.252C358.488 739.735 238.247 477.431 193.714 177.362C149.182 -122.707 188.797 -403.68 288.819 -615.376C388.844 -827.077 549.244 -969.44 746.266 -992.45C943.289 -1015.46 1139.76 -914.775 1298.14 -733.254C1456.52 -551.737 1576.76 -289.433 1621.29 10.6364Z" stroke="url(#paint49_angular_157_2250)"/>
<path d="M813.543 -539.151C1151.83 -578.659 1468.59 -543.513 1707.25 -454.776C1945.93 -366.028 2106.36 -223.739 2132.28 -49.0417C2158.21 125.656 2044.77 299.93 1840.11 440.455C1635.47 580.964 1339.76 687.64 1001.47 727.149C663.184 766.657 346.423 731.511 107.766 642.774C-130.919 554.026 -291.344 411.737 -317.271 237.04C-343.197 62.3423 -229.752 -111.932 -25.0932 -252.457C179.543 -392.966 475.256 -499.642 813.543 -539.151Z" stroke="url(#paint50_angular_157_2250)"/>
<path d="M1345.75 -412.664C1616.44 -228.406 1812.41 -4.86468 1910.43 207.58C2008.45 420.04 2008.49 621.298 1887.55 761.117C1766.61 900.936 1547.46 952.996 1290.75 923.987C1034.06 894.98 739.933 784.921 469.244 600.663C198.554 416.405 2.59113 192.864 -95.43 -19.581C-193.458 -232.041 -193.493 -433.299 -72.5518 -573.118C48.3893 -712.937 267.539 -764.997 524.249 -735.988C780.94 -706.981 1075.06 -596.922 1345.75 -412.664Z" stroke="url(#paint51_angular_157_2250)"/>
<path d="M1478.66 482.785C1270.96 722.908 1018.97 896.743 779.498 983.696C540.011 1070.65 313.128 1070.69 155.495 963.392C-2.13779 856.092 -60.8159 661.672 -28.1164 433.955C4.58163 206.249 128.644 -54.6622 336.347 -294.786C544.05 -534.91 796.034 -708.745 1035.51 -795.698C1275 -882.654 1501.88 -882.694 1659.51 -775.394C1817.15 -668.093 1875.82 -473.673 1843.12 -245.956C1810.43 -18.2502 1686.36 242.661 1478.66 482.785Z" stroke="url(#paint52_angular_157_2250)"/>
<path d="M1621.29 177.363C1576.76 477.432 1456.52 739.736 1298.14 921.253C1139.76 1102.77 943.29 1203.46 746.267 1180.45C549.245 1157.44 388.845 1015.08 288.82 803.375C188.798 591.679 149.183 310.706 193.715 10.637C238.248 -289.432 358.489 -551.736 516.867 -733.253C675.249 -914.775 871.719 -1015.46 1068.74 -992.449C1265.76 -969.439 1426.16 -827.076 1526.19 -615.376C1626.21 -403.68 1665.83 -122.706 1621.29 177.363Z" stroke="url(#paint53_angular_157_2250)"/>
<path d="M1001.47 -539.15C1339.75 -499.642 1635.47 -392.965 1840.1 -252.456C2044.76 -111.931 2158.21 62.343 2132.28 237.041C2106.35 411.738 1945.93 554.027 1707.24 642.774C1468.59 731.512 1151.83 766.658 813.539 727.149C475.252 687.641 179.539 580.965 -25.097 440.456C-229.756 299.93 -343.201 125.657 -317.274 -49.041C-291.348 -223.739 -130.923 -366.027 107.762 -454.775C346.42 -543.512 663.18 -578.658 1001.47 -539.15Z" stroke="url(#paint54_angular_157_2250)"/>
<path d="M1478.66 -294.786C1686.36 -54.6621 1810.43 206.249 1843.12 433.955C1875.82 661.672 1817.15 856.092 1659.51 963.392C1501.88 1070.69 1275 1070.65 1035.51 983.696C796.033 896.743 544.049 722.908 336.346 482.785C128.643 242.661 4.58066 -18.2502 -28.1173 -245.956C-60.8168 -473.673 -2.13876 -668.093 155.494 -775.394C313.127 -882.694 540.01 -882.654 779.497 -795.697C1018.97 -708.745 1270.96 -534.91 1478.66 -294.786Z" stroke="url(#paint55_angular_157_2250)"/>
<path d="M1345.75 600.663C1075.06 784.921 780.942 894.98 524.25 923.987C267.541 952.996 48.3912 900.937 -72.5499 761.117C-193.491 621.298 -193.456 420.04 -95.428 207.58C2.59313 -4.86432 198.556 -228.406 469.246 -412.663C739.935 -596.921 1034.06 -706.98 1290.75 -735.987C1547.46 -764.996 1766.61 -712.937 1887.55 -573.118C2008.49 -433.298 2008.46 -232.04 1910.43 -19.5807C1812.41 192.864 1616.44 416.406 1345.75 600.663Z" stroke="url(#paint56_angular_157_2250)"/>
<path d="M1621.29 177.363C1576.76 477.432 1456.52 739.736 1298.14 921.253C1139.76 1102.77 943.29 1203.46 746.267 1180.45C549.245 1157.44 388.845 1015.08 288.82 803.375C188.798 591.679 149.183 310.706 193.715 10.637C238.248 -289.432 358.489 -551.736 516.867 -733.253C675.249 -914.775 871.719 -1015.46 1068.74 -992.449C1265.76 -969.439 1426.16 -827.076 1526.19 -615.376C1626.21 -403.68 1665.83 -122.706 1621.29 177.363Z" stroke="url(#paint57_angular_157_2250)"/>
<path d="M1001.47 -539.15C1339.75 -499.642 1635.47 -392.965 1840.1 -252.456C2044.76 -111.931 2158.21 62.343 2132.28 237.041C2106.35 411.738 1945.93 554.027 1707.24 642.774C1468.59 731.512 1151.83 766.658 813.539 727.149C475.252 687.641 179.539 580.965 -25.097 440.456C-229.756 299.93 -343.201 125.657 -317.274 -49.041C-291.348 -223.739 -130.923 -366.027 107.762 -454.775C346.42 -543.512 663.18 -578.658 1001.47 -539.15Z" stroke="url(#paint58_angular_157_2250)"/>
<path d="M1478.66 -294.786C1686.36 -54.6621 1810.43 206.249 1843.12 433.955C1875.82 661.672 1817.15 856.092 1659.51 963.392C1501.88 1070.69 1275 1070.65 1035.51 983.696C796.033 896.743 544.049 722.908 336.346 482.785C128.643 242.661 4.58066 -18.2502 -28.1173 -245.956C-60.8168 -473.673 -2.13876 -668.093 155.494 -775.394C313.127 -882.694 540.01 -882.654 779.497 -795.697C1018.97 -708.745 1270.96 -534.91 1478.66 -294.786Z" stroke="url(#paint59_angular_157_2250)"/>
<path d="M1345.75 600.663C1075.06 784.921 780.942 894.98 524.25 923.987C267.541 952.996 48.3912 900.937 -72.5499 761.117C-193.491 621.298 -193.456 420.04 -95.428 207.58C2.59313 -4.86432 198.556 -228.406 469.246 -412.663C739.935 -596.921 1034.06 -706.98 1290.75 -735.987C1547.46 -764.996 1766.61 -712.937 1887.55 -573.118C2008.49 -433.298 2008.46 -232.04 1910.43 -19.5807C1812.41 192.864 1616.44 416.406 1345.75 600.663Z" stroke="url(#paint60_angular_157_2250)"/>
<path d="M1572.64 338.405C1442.08 618.029 1249.4 843.791 1043.46 982.762C837.511 1121.74 618.364 1173.88 434.778 1106.42C251.192 1038.96 137.792 864.625 102.94 637.168C68.0898 409.718 111.801 129.219 242.366 -150.405C372.93 -430.028 565.606 -655.79 771.549 -794.761C977.498 -933.736 1196.65 -985.875 1380.23 -918.417C1563.82 -850.958 1677.22 -676.624 1712.07 -449.167C1746.92 -221.717 1703.21 58.7817 1572.64 338.405Z" stroke="url(#paint61_angular_157_2250)"/>
<path d="M1182.99 -496.009C1498.22 -380.177 1752.73 -209.242 1909.4 -26.5386C2066.08 156.183 2124.82 350.569 2048.81 513.373C1972.79 676.177 1776.31 776.782 1519.87 807.703C1263.46 838.621 947.239 799.841 632.008 684.01C316.778 568.179 62.2671 397.244 -94.3995 214.54C-251.081 31.8185 -309.822 -162.567 -233.804 -325.371C-157.786 -488.175 38.6944 -588.78 295.132 -619.701C551.544 -650.619 867.762 -611.84 1182.99 -496.009Z" stroke="url(#paint62_angular_157_2250)"/>
<path d="M1572.64 -150.406C1703.2 129.218 1746.91 409.717 1712.06 637.167C1677.21 864.624 1563.81 1038.96 1380.23 1106.42C1196.64 1173.87 977.493 1121.74 771.544 982.761C565.601 843.79 372.925 618.028 242.361 338.404C111.796 58.7806 68.0846 -221.718 102.935 -449.168C137.787 -676.625 251.187 -850.959 434.773 -918.418C618.358 -985.876 837.505 -933.737 1043.45 -794.762C1249.4 -655.792 1442.07 -430.03 1572.64 -150.406Z" stroke="url(#paint63_angular_157_2250)"/>
<path d="M1182.99 684.009C867.76 799.841 551.542 838.62 295.129 807.702C38.6913 776.781 -157.789 676.176 -233.807 513.372C-309.825 350.568 -251.084 156.182 -94.4025 -26.5392C62.2641 -209.243 316.775 -380.178 632.005 -496.009C947.236 -611.841 1263.45 -650.62 1519.87 -619.702C1776.3 -588.781 1972.78 -488.176 2048.8 -325.372C2124.82 -162.568 2066.08 31.818 1909.4 214.539C1752.73 397.243 1498.22 568.178 1182.99 684.009Z" stroke="url(#paint64_angular_157_2250)"/>
<path d="M1616.52 -16.9041C1675.76 281.157 1650 563.396 1560.48 778.761C1470.96 994.131 1317.71 1142.56 1122.01 1173.18C926.308 1203.79 725.075 1110.8 557.918 935.582C390.765 760.365 257.741 502.963 198.496 204.903C139.251 -93.158 165.013 -375.397 254.531 -590.762C344.051 -806.132 497.298 -954.566 693.001 -985.177C888.703 -1015.79 1089.94 -922.804 1257.09 -747.583C1424.25 -572.367 1557.27 -314.965 1616.52 -16.9041Z" stroke="url(#paint65_angular_157_2250)"/>
<path d="M782.5 -534.913C1118.52 -587.473 1436.71 -564.618 1679.5 -485.2C1922.32 -405.773 2089.59 -269.827 2124.08 -96.298C2158.58 77.2313 2053.81 255.729 1856.25 404.039C1658.72 552.333 1368.54 670.35 1032.51 722.911C696.492 775.472 378.305 752.616 135.511 673.198C-107.309 593.771 -274.579 457.826 -309.071 284.296C-343.563 110.767 -238.794 -67.7311 -41.2403 -216.041C156.292 -364.335 446.478 -482.352 782.5 -534.913Z" stroke="url(#paint66_angular_157_2250)"/>
<path d="M1320.42 -429.138C1599.92 -255.529 1806.68 -39.7823 1915.06 168.668C2023.44 377.134 2033.37 578.198 1919.42 722.561C1805.47 866.924 1589.09 927.414 1331.2 908.366C1073.33 889.319 774.07 790.746 494.577 617.137C215.084 443.528 8.31544 227.782 -100.059 19.3312C-208.441 -189.135 -218.37 -390.198 -104.422 -534.561C9.52682 -678.924 225.906 -739.415 483.8 -720.367C741.674 -701.32 1040.93 -602.746 1320.42 -429.138Z" stroke="url(#paint67_angular_157_2250)"/>
<path d="M1497.24 460.315C1301.54 708.246 1058.34 891.665 823.371 987.801C588.389 1083.94 361.723 1092.76 198.961 991.662C36.1986 890.561 -31.9825 698.595 -10.5112 469.831C10.959 241.077 122.074 -24.3852 317.771 -272.317C513.468 -520.248 756.665 -703.667 991.636 -799.803C1226.62 -895.944 1453.28 -904.764 1616.05 -803.663C1778.81 -702.563 1846.99 -510.596 1825.52 -281.833C1804.05 -53.0787 1692.93 212.383 1497.24 460.315Z" stroke="url(#paint68_angular_157_2250)"/>
<path d="M1624.71 149.663C1594.98 451.169 1487.75 717.876 1338.45 905.349C1189.14 1092.83 997.809 1201.02 799.842 1185.65C601.875 1170.29 434.627 1034.27 324.289 826.639C213.953 619.015 160.56 339.842 190.295 38.336C220.031 -263.17 327.26 -529.877 476.562 -717.35C625.867 -904.827 817.199 -1013.02 1015.17 -997.654C1213.13 -982.289 1380.38 -846.268 1490.72 -638.64C1601.06 -431.016 1654.45 -151.843 1624.71 149.663Z" stroke="url(#paint69_angular_157_2250)"/>
<path d="M970.246 -542.183C1310.15 -515.802 1610.83 -420.67 1822.18 -288.212C2033.56 -155.74 2155.46 13.9783 2138.15 189.512C2120.84 365.045 1967.56 513.406 1733.47 611.305C1499.4 709.193 1184.67 756.563 844.762 730.182C504.854 703.801 204.177 608.669 -7.17369 476.212C-218.548 343.739 -340.453 174.021 -323.142 -1.51244C-305.83 -177.046 -152.554 -325.407 81.5394 -423.306C315.607 -521.194 630.338 -568.563 970.246 -542.183Z" stroke="url(#paint70_angular_157_2250)"/>
<path d="M1459 -316.515C1678.31 -84.6561 1815.08 171.207 1858.95 397.432C1902.81 623.669 1853.75 820.172 1701.54 933.468C1549.34 1046.76 1322.67 1055.5 1079.14 977.897C835.613 900.293 575.319 736.373 356.006 504.514C136.693 272.655 -0.0810645 16.7916 -43.9445 -209.433C-87.8102 -435.67 -38.7466 -632.174 113.457 -745.469C265.661 -858.765 492.328 -867.506 735.865 -789.898C979.39 -712.294 1239.68 -548.374 1459 -316.515Z" stroke="url(#paint71_angular_157_2250)"/>
<path d="M1370.26 583.225C1108.88 777.781 820.454 899.115 565.434 938.027C310.397 976.942 88.8943 933.413 -38.8094 798.404C-166.513 663.395 -176.373 462.325 -88.8853 246.276C-1.40382 30.2416 183.38 -200.669 444.751 -395.225C706.122 -589.781 994.553 -711.116 1249.57 -750.028C1504.61 -788.942 1726.11 -745.413 1853.82 -610.404C1981.52 -475.395 1991.38 -274.326 1903.89 -58.2765C1816.41 157.758 1631.63 388.669 1370.26 583.225Z" stroke="url(#paint72_angular_157_2250)"/>
<path d="M1624.71 149.663C1594.98 451.169 1487.75 717.876 1338.45 905.349C1189.14 1092.83 997.809 1201.02 799.842 1185.65C601.875 1170.29 434.627 1034.27 324.289 826.639C213.953 619.015 160.56 339.842 190.295 38.336C220.031 -263.17 327.26 -529.877 476.562 -717.35C625.867 -904.827 817.199 -1013.02 1015.17 -997.654C1213.13 -982.289 1380.38 -846.268 1490.72 -638.64C1601.06 -431.016 1654.45 -151.843 1624.71 149.663Z" stroke="url(#paint73_angular_157_2250)"/>
<path d="M970.246 -542.183C1310.15 -515.802 1610.83 -420.67 1822.18 -288.212C2033.56 -155.74 2155.46 13.9783 2138.15 189.512C2120.84 365.045 1967.56 513.406 1733.47 611.305C1499.4 709.193 1184.67 756.563 844.762 730.182C504.854 703.801 204.177 608.669 -7.17369 476.212C-218.548 343.739 -340.453 174.021 -323.142 -1.51244C-305.83 -177.046 -152.554 -325.407 81.5394 -423.306C315.607 -521.194 630.338 -568.563 970.246 -542.183Z" stroke="url(#paint74_angular_157_2250)"/>
<path d="M1459 -316.515C1678.31 -84.6561 1815.08 171.207 1858.95 397.432C1902.81 623.669 1853.75 820.172 1701.54 933.468C1549.34 1046.76 1322.67 1055.5 1079.14 977.897C835.613 900.293 575.319 736.373 356.006 504.514C136.693 272.655 -0.0810645 16.7916 -43.9445 -209.433C-87.8102 -435.67 -38.7466 -632.174 113.457 -745.469C265.661 -858.765 492.328 -867.506 735.865 -789.898C979.39 -712.294 1239.68 -548.374 1459 -316.515Z" stroke="url(#paint75_angular_157_2250)"/>
<path d="M1370.26 583.225C1108.88 777.781 820.454 899.115 565.434 938.027C310.397 976.942 88.8943 933.413 -38.8094 798.404C-166.513 663.395 -176.373 462.325 -88.8853 246.276C-1.40382 30.2416 183.38 -200.669 444.751 -395.225C706.122 -589.781 994.553 -711.116 1249.57 -750.028C1504.61 -788.942 1726.11 -745.413 1853.82 -610.404C1981.52 -475.395 1991.38 -274.326 1903.89 -58.2765C1816.41 157.758 1631.63 388.669 1370.26 583.225Z" stroke="url(#paint76_angular_157_2250)"/>
<path d="M1584.03 312.436C1467.34 596.845 1285.95 829.846 1087.04 976.653C888.119 1123.46 671.743 1184.04 485.013 1123.74C298.283 1063.45 176.418 893.671 130.416 667.781C84.4149 441.896 114.292 159.974 230.983 -124.435C347.673 -408.844 529.065 -641.846 727.978 -788.653C926.897 -935.464 1143.27 -996.035 1330 -935.743C1516.73 -875.452 1638.6 -705.671 1684.6 -479.78C1730.6 -253.896 1700.72 28.0268 1584.03 312.436Z" stroke="url(#paint77_angular_157_2250)"/>
<path d="M1153.72 -506.106C1474.35 -402.582 1737.02 -241.658 1902.53 -65.1895C2068.04 111.296 2136.28 303.224 2068.35 468.811C2000.41 634.399 1809.06 742.512 1554.39 783.326C1299.74 824.137 981.913 797.63 661.287 694.107C340.66 590.583 77.9862 429.659 -87.5154 253.191C-253.033 76.7049 -321.275 -115.222 -253.335 -280.81C-185.396 -446.398 5.94878 -554.51 260.623 -595.325C515.272 -636.136 833.097 -609.629 1153.72 -506.106Z" stroke="url(#paint78_angular_157_2250)"/>
<path d="M1559.99 -175.91C1704.18 98.3967 1761.64 376.938 1738.01 605.521C1714.37 834.111 1609.65 1012.67 1429.56 1087.16C1249.47 1161.66 1027.97 1118.05 815.378 987.177C602.798 856.307 399.203 638.215 255.013 363.909C110.823 89.6024 53.3608 -188.939 76.9944 -417.522C100.629 -646.112 205.349 -824.666 385.441 -899.164C565.532 -973.661 787.033 -930.052 999.621 -799.178C1212.2 -668.308 1415.8 -450.216 1559.99 -175.91Z" stroke="url(#paint79_angular_157_2250)"/>
<path d="M1211.74 672.79C902.51 800.708 588.5 851.686 330.812 830.72C73.1001 809.751 -128.142 716.845 -212.094 557.135C-296.047 397.425 -246.918 200.95 -99.3712 12.3408C48.1623 -176.251 294.025 -356.871 603.259 -484.789C912.493 -612.708 1226.5 -663.686 1484.19 -642.719C1741.9 -621.751 1943.14 -528.845 2027.1 -369.135C2111.05 -209.424 2061.92 -12.9495 1914.37 175.659C1766.84 364.251 1520.98 544.871 1211.74 672.79Z" stroke="url(#paint80_angular_157_2250)"/>
<path d="M1610.38 -44.2336C1684.23 251.251 1672.37 534.22 1593.53 752.844C1514.68 971.473 1368.88 1125.69 1174.87 1163.85C980.858 1202 775.244 1116.89 599.63 948.309C424.021 779.727 278.466 527.717 204.622 232.232C130.777 -63.2534 142.637 -346.221 221.48 -564.846C300.325 -783.475 446.128 -937.696 640.137 -975.851C834.147 -1014.01 1039.76 -928.897 1215.37 -760.311C1390.98 -591.729 1536.54 -339.719 1610.38 -44.2336Z" stroke="url(#paint81_angular_157_2250)"/>
<path d="M751.689 -529.478C1084.81 -594.991 1403.81 -584.47 1650.28 -514.522C1896.77 -444.567 2070.57 -315.223 2113.56 -143.192C2156.56 28.839 2060.66 211.221 1870.59 367.034C1680.54 522.83 1396.43 651.963 1063.31 717.476C730.196 782.989 411.189 772.468 164.721 702.52C-81.7724 632.565 -255.569 503.221 -298.561 331.19C-341.553 159.159 -245.66 -23.2234 -55.5872 -179.036C134.465 -334.832 418.571 -463.966 751.689 -529.478Z" stroke="url(#paint82_angular_157_2250)"/>
<path d="M1294.31 -444.616C1582.07 -281.987 1799.25 -74.4455 1917.77 129.614C2036.3 333.689 2056.11 534.176 1949.37 682.807C1842.63 831.439 1629.43 900.246 1370.84 891.195C1112.28 882.144 808.459 795.244 520.695 632.615C232.93 469.986 15.7488 262.445 -102.772 58.3857C-221.303 -145.69 -241.107 -346.176 -134.368 -494.808C-27.6281 -643.44 185.569 -712.246 444.155 -703.195C702.722 -694.145 1006.54 -607.245 1294.31 -444.616Z" stroke="url(#paint83_angular_157_2250)"/>
<path d="M1514.69 437.148C1331.37 692.414 1097.42 885.069 867.402 990.205C637.373 1095.35 411.355 1112.93 243.773 1018.22C76.1918 923.514 -1.36262 734.367 8.83951 504.992C19.0414 275.625 116.997 6.11732 300.317 -249.149C483.636 -504.416 717.581 -697.071 947.601 -802.207C1177.63 -907.348 1403.65 -924.932 1571.23 -830.224C1738.81 -735.516 1816.37 -546.369 1806.16 -316.993C1795.96 -87.6272 1698.01 181.881 1514.69 437.148Z" stroke="url(#paint84_angular_157_2250)"/>
<path d="M1626.77 121.858C1611.89 424.227 1517.88 694.829 1377.93 887.901C1237.99 1080.98 1052.16 1196.47 853.624 1188.78C655.09 1181.09 481.313 1051.67 360.87 848.508C240.43 645.352 173.361 368.511 188.243 66.1411C203.125 -236.229 297.138 -506.83 437.079 -699.902C577.024 -892.978 762.854 -1008.47 961.389 -1000.78C1159.92 -993.091 1333.7 -863.67 1454.14 -660.509C1574.58 -457.353 1641.65 -180.512 1626.77 121.858Z" stroke="url(#paint85_angular_157_2250)"/>
<path d="M938.905 -544.004C1279.79 -530.802 1584.86 -447.395 1802.52 -323.241C2020.2 -199.074 2150.34 -34.2345 2141.68 141.801C2133.01 317.837 1987.18 471.988 1758.12 578.852C1529.09 685.704 1216.99 745.207 876.103 732.004C535.222 718.801 230.153 635.394 12.4904 511.241C-205.196 387.073 -335.331 222.234 -326.667 46.1981C-318.003 -129.838 -172.168 -283.988 56.8892 -390.853C285.921 -497.705 598.023 -557.207 938.905 -544.004Z" stroke="url(#paint86_angular_157_2250)"/>
<path d="M1438.28 -337.463C1668.79 -114.31 1818.02 136.019 1872.96 360.332C1927.91 584.657 1888.55 782.871 1742.07 901.946C1595.58 1021.02 1369.56 1038.53 1122.44 970.414C875.331 902.307 607.224 748.615 376.719 525.462C146.213 302.309 -3.01281 51.9805 -57.9583 -172.333C-112.907 -396.658 -73.5508 -594.872 72.9345 -713.947C219.42 -833.022 445.439 -850.526 692.562 -782.415C939.672 -714.308 1207.78 -560.616 1438.28 -337.463Z" stroke="url(#paint87_angular_157_2250)"/>
<path d="M1393.87 564.855C1142.32 769.339 860.127 901.718 607.264 950.461C354.386 999.207 130.951 964.292 -3.27244 834.35C-137.496 704.407 -157.231 503.909 -80.4511 284.682C-3.67569 65.4689 169.578 -172.371 421.133 -376.855C672.687 -581.339 954.876 -713.718 1207.74 -762.461C1460.62 -811.207 1684.05 -776.291 1818.28 -646.349C1952.5 -516.407 1972.23 -315.909 1895.45 -96.6821C1818.68 122.531 1645.43 360.371 1393.87 564.855Z" stroke="url(#paint88_angular_157_2250)"/>
<path d="M1626.77 121.858C1611.89 424.227 1517.88 694.829 1377.93 887.901C1237.99 1080.98 1052.16 1196.47 853.624 1188.78C655.09 1181.09 481.313 1051.67 360.87 848.508C240.43 645.352 173.361 368.511 188.243 66.1411C203.125 -236.229 297.138 -506.83 437.079 -699.902C577.024 -892.978 762.854 -1008.47 961.389 -1000.78C1159.92 -993.091 1333.7 -863.67 1454.14 -660.509C1574.58 -457.353 1641.65 -180.512 1626.77 121.858Z" stroke="url(#paint89_angular_157_2250)"/>
<path d="M938.905 -544.004C1279.79 -530.802 1584.86 -447.395 1802.52 -323.241C2020.2 -199.074 2150.34 -34.2345 2141.68 141.801C2133.01 317.837 1987.18 471.988 1758.12 578.852C1529.09 685.704 1216.99 745.207 876.103 732.004C535.222 718.801 230.153 635.394 12.4904 511.241C-205.196 387.073 -335.331 222.234 -326.667 46.1981C-318.003 -129.838 -172.168 -283.988 56.8892 -390.853C285.921 -497.705 598.023 -557.207 938.905 -544.004Z" stroke="url(#paint90_angular_157_2250)"/>
<path d="M1438.28 -337.463C1668.79 -114.31 1818.02 136.019 1872.96 360.332C1927.91 584.657 1888.55 782.871 1742.07 901.946C1595.58 1021.02 1369.56 1038.53 1122.44 970.414C875.331 902.307 607.224 748.615 376.719 525.462C146.213 302.309 -3.01281 51.9805 -57.9583 -172.333C-112.907 -396.658 -73.5508 -594.872 72.9345 -713.947C219.42 -833.022 445.439 -850.526 692.562 -782.415C939.672 -714.308 1207.78 -560.616 1438.28 -337.463Z" stroke="url(#paint91_angular_157_2250)"/>
<path d="M1393.87 564.855C1142.32 769.339 860.127 901.718 607.264 950.461C354.386 999.207 130.951 964.292 -3.27244 834.35C-137.496 704.407 -157.231 503.909 -80.4511 284.682C-3.67569 65.4689 169.578 -172.371 421.133 -376.855C672.687 -581.339 954.876 -713.718 1207.74 -762.461C1460.62 -811.207 1684.05 -776.291 1818.28 -646.349C1952.5 -516.407 1972.23 -315.909 1895.45 -96.6821C1818.68 122.531 1645.43 360.371 1393.87 564.855Z" stroke="url(#paint92_angular_157_2250)"/>
<path d="M1594.13 286.05C1491.53 574.703 1321.77 814.501 1130.26 968.865C938.755 1123.23 725.563 1192.12 536.044 1139.11C346.525 1086.1 216.428 921.196 159.363 697.301C102.299 473.412 118.286 190.603 220.88 -98.0498C323.475 -386.702 493.236 -626.501 684.741 -780.865C876.251 -935.232 1089.44 -1004.12 1278.96 -951.11C1468.48 -898.101 1598.58 -733.196 1655.64 -509.301C1712.71 -285.412 1696.72 -2.60259 1594.13 286.05Z" stroke="url(#paint93_angular_157_2250)"/>
<path d="M1123.98 -515.06C1449.39 -424.042 1719.73 -273.434 1893.75 -103.538C2067.79 66.3764 2145.4 255.48 2085.67 423.536C2025.94 591.593 1840.09 707.007 1587.67 757.638C1335.27 808.263 1016.44 794.08 691.028 703.061C365.615 612.043 95.278 461.435 -78.7435 291.539C-252.783 121.625 -330.395 -67.4787 -270.663 -235.535C-210.932 -403.592 -25.0863 -519.006 227.34 -569.636C479.741 -620.262 798.567 -606.079 1123.98 -515.06Z" stroke="url(#paint94_angular_157_2250)"/>
<path d="M1546.09 -200.9C1703.63 67.5673 1774.74 343.621 1762.36 572.902C1749.99 802.19 1654.15 984.625 1477.9 1066.02C1301.64 1147.41 1078.21 1112.42 859.386 989.893C640.572 867.373 426.447 657.366 268.906 388.899C111.365 120.432 40.2607 -155.622 52.6323 -384.902C65.0043 -614.191 160.846 -796.625 337.1 -878.019C513.355 -959.413 736.788 -924.418 955.61 -801.894C1174.42 -679.374 1388.55 -469.366 1546.09 -200.9Z" stroke="url(#paint95_angular_157_2250)"/>
<path d="M1239.91 660.468C937.263 800.23 626.06 863.31 367.587 852.335C109.091 841.359 -96.5301 756.329 -188.257 600.016C-279.984 443.703 -240.561 245.513 -102.43 51.376C35.6896 -142.744 272.436 -332.705 575.086 -472.468C877.735 -612.23 1188.94 -675.31 1447.41 -664.334C1705.91 -653.358 1911.53 -568.328 2003.25 -412.016C2094.98 -255.703 2055.56 -57.5128 1917.43 136.625C1779.31 330.745 1542.56 520.706 1239.91 660.468Z" stroke="url(#paint96_angular_157_2250)"/>
</g>
<defs>
<radialGradient id="paint0_radial_157_2250" cx="0" cy="0" r="1" gradientUnits="userSpaceOnUse" gradientTransform="translate(619.5 461) rotate(-142.932) scale(663.604 817.382)">
<stop stop-color="#D9D9D9"/>
<stop offset="1" stop-color="#D9D9D9" stop-opacity="0"/>
</radialGradient>
<radialGradient id="paint1_angular_157_2250" cx="0" cy="0" r="1" gradientUnits="userSpaceOnUse" gradientTransform="translate(907.503 93.9994) rotate(90) scale(1096.32 720.449)">
<stop offset="0.247013" stop-color="#999999" stop-opacity="0.298278"/>
<stop offset="0.50268" stop-color="#999999" stop-opacity="0.4"/>
<stop offset="0.746415" stop-color="#999999"/>
<stop offset="1" stop-color="#999999" stop-opacity="0.2"/>
</radialGradient>
<radialGradient id="paint2_angular_157_2250" cx="0" cy="0" r="1" gradientUnits="userSpaceOnUse" gradientTransform="translate(907.503 93.9994) scale(1235.85 639.112)">
<stop offset="0.247013" stop-color="#999999" stop-opacity="0.298278"/>
<stop offset="0.50268" stop-color="#999999" stop-opacity="0.4"/>
<stop offset="0.746415" stop-color="#999999"/>
<stop offset="1" stop-color="#999999" stop-opacity="0.2"/>
</radialGradient>
<radialGradient id="paint3_angular_157_2250" cx="0" cy="0" r="1" gradientUnits="userSpaceOnUse" gradientTransform="translate(907.499 93.9995) rotate(41.5763) scale(1168.17 676.138)">
<stop offset="0.247013" stop-color="#999999" stop-opacity="0.298278"/>
<stop offset="0.50268" stop-color="#999999" stop-opacity="0.4"/>
<stop offset="0.746415" stop-color="#999999"/>
<stop offset="1" stop-color="#999999" stop-opacity="0.2"/>
</radialGradient>
<radialGradient id="paint4_angular_157_2250" cx="0" cy="0" r="1" gradientUnits="userSpaceOnUse" gradientTransform="translate(907.501 93.9995) rotate(138.424) scale(1168.17 676.138)">
<stop offset="0.247013" stop-color="#999999" stop-opacity="0.298278"/>
<stop offset="0.50268" stop-color="#999999" stop-opacity="0.4"/>
<stop offset="0.746415" stop-color="#999999"/>
<stop offset="1" stop-color="#999999" stop-opacity="0.2"/>
</radialGradient>
<radialGradient id="paint5_angular_157_2250" cx="0" cy="0" r="1" gradientUnits="userSpaceOnUse" gradientTransform="translate(907.504 93.9999) rotate(106.807) scale(1106.22 714.004)">
<stop offset="0.247013" stop-color="#999999" stop-opacity="0.298278"/>
<stop offset="0.50268" stop-color="#999999" stop-opacity="0.4"/>
<stop offset="0.746415" stop-color="#999999"/>
<stop offset="1" stop-color="#999999" stop-opacity="0.2"/>
</radialGradient>
<radialGradient id="paint6_angular_157_2250" cx="0" cy="0" r="1" gradientUnits="userSpaceOnUse" gradientTransform="translate(907.503 94.0002) rotate(13.371) scale(1227 643.722)">
<stop offset="0.247013" stop-color="#999999" stop-opacity="0.298278"/>
<stop offset="0.50268" stop-color="#999999" stop-opacity="0.4"/>
<stop offset="0.746415" stop-color="#999999"/>
<stop offset="1" stop-color="#999999" stop-opacity="0.2"/>
</radialGradient>
<radialGradient id="paint7_angular_157_2250" cx="0" cy="0" r="1" gradientUnits="userSpaceOnUse" gradientTransform="translate(907.499 93.9991) rotate(56.9428) scale(1132.82 697.24)">
<stop offset="0.247013" stop-color="#999999" stop-opacity="0.298278"/>
<stop offset="0.50268" stop-color="#999999" stop-opacity="0.4"/>
<stop offset="0.746415" stop-color="#999999"/>
<stop offset="1" stop-color="#999999" stop-opacity="0.2"/>
</radialGradient>
<radialGradient id="paint8_angular_157_2250" cx="0" cy="0" r="1" gradientUnits="userSpaceOnUse" gradientTransform="translate(907.499 93.9997) rotate(152.88) scale(1202.48 656.844)">
<stop offset="0.247013" stop-color="#999999" stop-opacity="0.298278"/>
<stop offset="0.50268" stop-color="#999999" stop-opacity="0.4"/>
<stop offset="0.746415" stop-color="#999999"/>
<stop offset="1" stop-color="#999999" stop-opacity="0.2"/>
</radialGradient>
<radialGradient id="paint9_angular_157_2250" cx="0" cy="0" r="1" gradientUnits="userSpaceOnUse" gradientTransform="translate(907.504 93.9999) rotate(106.807) scale(1106.22 714.004)">
<stop offset="0.247013" stop-color="#999999" stop-opacity="0.298278"/>
<stop offset="0.50268" stop-color="#999999" stop-opacity="0.4"/>
<stop offset="0.746415" stop-color="#999999"/>
<stop offset="1" stop-color="#999999" stop-opacity="0.2"/>
</radialGradient>
<radialGradient id="paint10_angular_157_2250" cx="0" cy="0" r="1" gradientUnits="userSpaceOnUse" gradientTransform="translate(907.503 94.0002) rotate(13.371) scale(1227 643.722)">
<stop offset="0.247013" stop-color="#999999" stop-opacity="0.298278"/>
<stop offset="0.50268" stop-color="#999999" stop-opacity="0.4"/>
<stop offset="0.746415" stop-color="#999999"/>
<stop offset="1" stop-color="#999999" stop-opacity="0.2"/>
</radialGradient>
<radialGradient id="paint11_angular_157_2250" cx="0" cy="0" r="1" gradientUnits="userSpaceOnUse" gradientTransform="translate(907.499 93.9991) rotate(56.9428) scale(1132.82 697.24)">
<stop offset="0.247013" stop-color="#999999" stop-opacity="0.298278"/>
<stop offset="0.50268" stop-color="#999999" stop-opacity="0.4"/>
<stop offset="0.746415" stop-color="#999999"/>
<stop offset="1" stop-color="#999999" stop-opacity="0.2"/>
</radialGradient>
<radialGradient id="paint12_angular_157_2250" cx="0" cy="0" r="1" gradientUnits="userSpaceOnUse" gradientTransform="translate(907.499 93.9997) rotate(152.88) scale(1202.48 656.844)">
<stop offset="0.247013" stop-color="#999999" stop-opacity="0.298278"/>
<stop offset="0.50268" stop-color="#999999" stop-opacity="0.4"/>
<stop offset="0.746415" stop-color="#999999"/>
<stop offset="1" stop-color="#999999" stop-opacity="0.2"/>
</radialGradient>
<radialGradient id="paint13_angular_157_2250" cx="0" cy="0" r="1" gradientUnits="userSpaceOnUse" gradientTransform="translate(907.504 94.0008) rotate(123.057) scale(1132.82 697.24)">
<stop offset="0.247013" stop-color="#999999" stop-opacity="0.298278"/>
<stop offset="0.50268" stop-color="#999999" stop-opacity="0.4"/>
<stop offset="0.746415" stop-color="#999999"/>
<stop offset="1" stop-color="#999999" stop-opacity="0.2"/>
</radialGradient>
<radialGradient id="paint14_angular_157_2250" cx="0" cy="0" r="1" gradientUnits="userSpaceOnUse" gradientTransform="translate(907.501 94.0006) rotate(27.1201) scale(1202.48 656.844)">
<stop offset="0.247013" stop-color="#999999" stop-opacity="0.298278"/>
<stop offset="0.50268" stop-color="#999999" stop-opacity="0.4"/>
<stop offset="0.746415" stop-color="#999999"/>
<stop offset="1" stop-color="#999999" stop-opacity="0.2"/>
</radialGradient>
<radialGradient id="paint15_angular_157_2250" cx="0" cy="0" r="1" gradientUnits="userSpaceOnUse" gradientTransform="translate(907.497 93.9988) rotate(73.1931) scale(1106.22 714.004)">
<stop offset="0.247013" stop-color="#999999" stop-opacity="0.298278"/>
<stop offset="0.50268" stop-color="#999999" stop-opacity="0.4"/>
<stop offset="0.746415" stop-color="#999999"/>
<stop offset="1" stop-color="#999999" stop-opacity="0.2"/>
</radialGradient>
<radialGradient id="paint16_angular_157_2250" cx="0" cy="0" r="1" gradientUnits="userSpaceOnUse" gradientTransform="translate(907.497 93.9995) rotate(166.629) scale(1227 643.722)">
<stop offset="0.247013" stop-color="#999999" stop-opacity="0.298278"/>
<stop offset="0.50268" stop-color="#999999" stop-opacity="0.4"/>
<stop offset="0.746415" stop-color="#999999"/>
<stop offset="1" stop-color="#999999" stop-opacity="0.2"/>
</radialGradient>
<radialGradient id="paint17_angular_157_2250" cx="0" cy="0" r="1" gradientUnits="userSpaceOnUse" gradientTransform="translate(907.502 93.9994) rotate(87.1823) scale(1096.6 720.263)">
<stop offset="0.247013" stop-color="#999999" stop-opacity="0.298278"/>
<stop offset="0.50268" stop-color="#999999" stop-opacity="0.4"/>
<stop offset="0.746415" stop-color="#999999"/>
<stop offset="1" stop-color="#999999" stop-opacity="0.2"/>
</radialGradient>
<radialGradient id="paint18_angular_157_2250" cx="0" cy="0" r="1" gradientUnits="userSpaceOnUse" gradientTransform="translate(907.503 93.9993) rotate(-2.21806) scale(1235.6 639.241)">
<stop offset="0.247013" stop-color="#999999" stop-opacity="0.298278"/>
<stop offset="0.50268" stop-color="#999999" stop-opacity="0.4"/>
<stop offset="0.746415" stop-color="#999999"/>
<stop offset="1" stop-color="#999999" stop-opacity="0.2"/>
</radialGradient>
<radialGradient id="paint19_angular_157_2250" cx="0" cy="0" r="1" gradientUnits="userSpaceOnUse" gradientTransform="translate(907.499 93.9995) rotate(39.107) scale(1174.22 672.653)">
<stop offset="0.247013" stop-color="#999999" stop-opacity="0.298278"/>
<stop offset="0.50268" stop-color="#999999" stop-opacity="0.4"/>
<stop offset="0.746415" stop-color="#999999"/>
<stop offset="1" stop-color="#999999" stop-opacity="0.2"/>
</radialGradient>
<radialGradient id="paint20_angular_157_2250" cx="0" cy="0" r="1" gradientUnits="userSpaceOnUse" gradientTransform="translate(907.503 93.9995) rotate(135.929) scale(1162.08 679.679)">
<stop offset="0.247013" stop-color="#999999" stop-opacity="0.298278"/>
<stop offset="0.50268" stop-color="#999999" stop-opacity="0.4"/>
<stop offset="0.746415" stop-color="#999999"/>
<stop offset="1" stop-color="#999999" stop-opacity="0.2"/>
</radialGradient>
<radialGradient id="paint21_angular_157_2250" cx="0" cy="0" r="1" gradientUnits="userSpaceOnUse" gradientTransform="translate(907.503 94) rotate(104.031) scale(1103.25 715.923)">
<stop offset="0.247013" stop-color="#999999" stop-opacity="0.298278"/>
<stop offset="0.50268" stop-color="#999999" stop-opacity="0.4"/>
<stop offset="0.746415" stop-color="#999999"/>
<stop offset="1" stop-color="#999999" stop-opacity="0.2"/>
</radialGradient>
<radialGradient id="paint22_angular_157_2250" cx="0" cy="0" r="1" gradientUnits="userSpaceOnUse" gradientTransform="translate(907.506 94) rotate(11.1261) scale(1229.66 642.325)">
<stop offset="0.247013" stop-color="#999999" stop-opacity="0.298278"/>
<stop offset="0.50268" stop-color="#999999" stop-opacity="0.4"/>
<stop offset="0.746415" stop-color="#999999"/>
<stop offset="1" stop-color="#999999" stop-opacity="0.2"/>
</radialGradient>
<radialGradient id="paint23_angular_157_2250" cx="0" cy="0" r="1" gradientUnits="userSpaceOnUse" gradientTransform="translate(907.501 93.9993) rotate(54.3161) scale(1138.36 693.845)">
<stop offset="0.247013" stop-color="#999999" stop-opacity="0.298278"/>
<stop offset="0.50268" stop-color="#999999" stop-opacity="0.4"/>
<stop offset="0.746415" stop-color="#999999"/>
<stop offset="1" stop-color="#999999" stop-opacity="0.2"/>
</radialGradient>
<radialGradient id="paint24_angular_157_2250" cx="0" cy="0" r="1" gradientUnits="userSpaceOnUse" gradientTransform="translate(907.498 93.9998) rotate(150.527) scale(1197.24 659.722)">
<stop offset="0.247013" stop-color="#999999" stop-opacity="0.298278"/>
<stop offset="0.50268" stop-color="#999999" stop-opacity="0.4"/>
<stop offset="0.746415" stop-color="#999999"/>
<stop offset="1" stop-color="#999999" stop-opacity="0.2"/>
</radialGradient>
<radialGradient id="paint25_angular_157_2250" cx="0" cy="0" r="1" gradientUnits="userSpaceOnUse" gradientTransform="translate(907.503 94) rotate(104.031) scale(1103.25 715.923)">
<stop offset="0.247013" stop-color="#999999" stop-opacity="0.298278"/>
<stop offset="0.50268" stop-color="#999999" stop-opacity="0.4"/>
<stop offset="0.746415" stop-color="#999999"/>
<stop offset="1" stop-color="#999999" stop-opacity="0.2"/>
</radialGradient>
<radialGradient id="paint26_angular_157_2250" cx="0" cy="0" r="1" gradientUnits="userSpaceOnUse" gradientTransform="translate(907.506 94) rotate(11.1261) scale(1229.66 642.325)">
<stop offset="0.247013" stop-color="#999999" stop-opacity="0.298278"/>
<stop offset="0.50268" stop-color="#999999" stop-opacity="0.4"/>
<stop offset="0.746415" stop-color="#999999"/>
<stop offset="1" stop-color="#999999" stop-opacity="0.2"/>
</radialGradient>
<radialGradient id="paint27_angular_157_2250" cx="0" cy="0" r="1" gradientUnits="userSpaceOnUse" gradientTransform="translate(907.501 93.9993) rotate(54.3161) scale(1138.36 693.845)">
<stop offset="0.247013" stop-color="#999999" stop-opacity="0.298278"/>
<stop offset="0.50268" stop-color="#999999" stop-opacity="0.4"/>
<stop offset="0.746415" stop-color="#999999"/>
<stop offset="1" stop-color="#999999" stop-opacity="0.2"/>
</radialGradient>
<radialGradient id="paint28_angular_157_2250" cx="0" cy="0" r="1" gradientUnits="userSpaceOnUse" gradientTransform="translate(907.498 93.9998) rotate(150.527) scale(1197.24 659.722)">
<stop offset="0.247013" stop-color="#999999" stop-opacity="0.298278"/>
<stop offset="0.50268" stop-color="#999999" stop-opacity="0.4"/>
<stop offset="0.746415" stop-color="#999999"/>
<stop offset="1" stop-color="#999999" stop-opacity="0.2"/>
</radialGradient>
<radialGradient id="paint29_angular_157_2250" cx="0" cy="0" r="1" gradientUnits="userSpaceOnUse" gradientTransform="translate(907.506 94.0006) rotate(120.405) scale(1127.52 700.515)">
<stop offset="0.247013" stop-color="#999999" stop-opacity="0.298278"/>
<stop offset="0.50268" stop-color="#999999" stop-opacity="0.4"/>
<stop offset="0.746415" stop-color="#999999"/>
<stop offset="1" stop-color="#999999" stop-opacity="0.2"/>
</radialGradient>
<radialGradient id="paint30_angular_157_2250" cx="0" cy="0" r="1" gradientUnits="userSpaceOnUse" gradientTransform="translate(907.501 94.0005) rotate(24.7873) scale(1207.45 654.142)">
<stop offset="0.247013" stop-color="#999999" stop-opacity="0.298278"/>
<stop offset="0.50268" stop-color="#999999" stop-opacity="0.4"/>
<stop offset="0.746415" stop-color="#999999"/>
<stop offset="1" stop-color="#999999" stop-opacity="0.2"/>
</radialGradient>
<radialGradient id="paint31_angular_157_2250" cx="0" cy="0" r="1" gradientUnits="userSpaceOnUse" gradientTransform="translate(907.5 93.9991) rotate(70.4335) scale(1109.66 711.789)">
<stop offset="0.247013" stop-color="#999999" stop-opacity="0.298278"/>
<stop offset="0.50268" stop-color="#999999" stop-opacity="0.4"/>
<stop offset="0.746415" stop-color="#999999"/>
<stop offset="1" stop-color="#999999" stop-opacity="0.2"/>
</radialGradient>
<radialGradient id="paint32_angular_157_2250" cx="0" cy="0" r="1" gradientUnits="userSpaceOnUse" gradientTransform="translate(907.496 93.9998) rotate(164.374) scale(1223.88 645.358)">
<stop offset="0.247013" stop-color="#999999" stop-opacity="0.298278"/>
<stop offset="0.50268" stop-color="#999999" stop-opacity="0.4"/>
<stop offset="0.746415" stop-color="#999999"/>
<stop offset="1" stop-color="#999999" stop-opacity="0.2"/>
</radialGradient>
<radialGradient id="paint33_angular_157_2250" cx="0" cy="0" r="1" gradientUnits="userSpaceOnUse" gradientTransform="translate(907.501 93.9993) rotate(84.3675) scale(1097.45 719.709)">
<stop offset="0.247013" stop-color="#999999" stop-opacity="0.298278"/>
<stop offset="0.50268" stop-color="#999999" stop-opacity="0.4"/>
<stop offset="0.746415" stop-color="#999999"/>
<stop offset="1" stop-color="#999999" stop-opacity="0.2"/>
</radialGradient>
<radialGradient id="paint34_angular_157_2250" cx="0" cy="0" r="1" gradientUnits="userSpaceOnUse" gradientTransform="translate(907.502 93.9993) rotate(-4.43791) scale(1234.85 639.63)">
<stop offset="0.247013" stop-color="#999999" stop-opacity="0.298278"/>
<stop offset="0.50268" stop-color="#999999" stop-opacity="0.4"/>
<stop offset="0.746415" stop-color="#999999"/>
<stop offset="1" stop-color="#999999" stop-opacity="0.2"/>
</radialGradient>
<radialGradient id="paint35_angular_157_2250" cx="0" cy="0" r="1" gradientUnits="userSpaceOnUse" gradientTransform="translate(907.501 93.9996) rotate(36.6628) scale(1180.2 669.246)">
<stop offset="0.247013" stop-color="#999999" stop-opacity="0.298278"/>
<stop offset="0.50268" stop-color="#999999" stop-opacity="0.4"/>
<stop offset="0.746415" stop-color="#999999"/>
<stop offset="1" stop-color="#999999" stop-opacity="0.2"/>
</radialGradient>
<radialGradient id="paint36_angular_157_2250" cx="0" cy="0" r="1" gradientUnits="userSpaceOnUse" gradientTransform="translate(907.503 93.9994) rotate(133.407) scale(1156.01 683.248)">
<stop offset="0.247013" stop-color="#999999" stop-opacity="0.298278"/>
<stop offset="0.50268" stop-color="#999999" stop-opacity="0.4"/>
<stop offset="0.746415" stop-color="#999999"/>
<stop offset="1" stop-color="#999999" stop-opacity="0.2"/>
</radialGradient>
<radialGradient id="paint37_angular_157_2250" cx="0" cy="0" r="1" gradientUnits="userSpaceOnUse" gradientTransform="translate(907.507 93.9999) rotate(101.242) scale(1100.79 717.526)">
<stop offset="0.247013" stop-color="#999999" stop-opacity="0.298278"/>
<stop offset="0.50268" stop-color="#999999" stop-opacity="0.4"/>
<stop offset="0.746415" stop-color="#999999"/>
<stop offset="1" stop-color="#999999" stop-opacity="0.2"/>
</radialGradient>
<radialGradient id="paint38_angular_157_2250" cx="0" cy="0" r="1" gradientUnits="userSpaceOnUse" gradientTransform="translate(907.502 93.9999) rotate(8.89017) scale(1231.87 641.175)">
<stop offset="0.247013" stop-color="#999999" stop-opacity="0.298278"/>
<stop offset="0.50268" stop-color="#999999" stop-opacity="0.4"/>
<stop offset="0.746415" stop-color="#999999"/>
<stop offset="1" stop-color="#999999" stop-opacity="0.2"/>
</radialGradient>
<radialGradient id="paint39_angular_157_2250" cx="0" cy="0" r="1" gradientUnits="userSpaceOnUse" gradientTransform="translate(907.502 93.9993) rotate(51.7153) scale(1144.1 690.36)">
<stop offset="0.247013" stop-color="#999999" stop-opacity="0.298278"/>
<stop offset="0.50268" stop-color="#999999" stop-opacity="0.4"/>
<stop offset="0.746415" stop-color="#999999"/>
<stop offset="1" stop-color="#999999" stop-opacity="0.2"/>
</radialGradient>
<radialGradient id="paint40_angular_157_2250" cx="0" cy="0" r="1" gradientUnits="userSpaceOnUse" gradientTransform="translate(907.5 93.9998) rotate(148.153) scale(1191.75 662.761)">
<stop offset="0.247013" stop-color="#999999" stop-opacity="0.298278"/>
<stop offset="0.50268" stop-color="#999999" stop-opacity="0.4"/>
<stop offset="0.746415" stop-color="#999999"/>
<stop offset="1" stop-color="#999999" stop-opacity="0.2"/>
</radialGradient>
<radialGradient id="paint41_angular_157_2250" cx="0" cy="0" r="1" gradientUnits="userSpaceOnUse" gradientTransform="translate(907.507 93.9999) rotate(101.242) scale(1100.79 717.526)">
<stop offset="0.247013" stop-color="#999999" stop-opacity="0.298278"/>
<stop offset="0.50268" stop-color="#999999" stop-opacity="0.4"/>
<stop offset="0.746415" stop-color="#999999"/>
<stop offset="1" stop-color="#999999" stop-opacity="0.2"/>
</radialGradient>
<radialGradient id="paint42_angular_157_2250" cx="0" cy="0" r="1" gradientUnits="userSpaceOnUse" gradientTransform="translate(907.502 93.9999) rotate(8.89017) scale(1231.87 641.175)">
<stop offset="0.247013" stop-color="#999999" stop-opacity="0.298278"/>
<stop offset="0.50268" stop-color="#999999" stop-opacity="0.4"/>
<stop offset="0.746415" stop-color="#999999"/>
<stop offset="1" stop-color="#999999" stop-opacity="0.2"/>
</radialGradient>
<radialGradient id="paint43_angular_157_2250" cx="0" cy="0" r="1" gradientUnits="userSpaceOnUse" gradientTransform="translate(907.502 93.9993) rotate(51.7153) scale(1144.1 690.36)">
<stop offset="0.247013" stop-color="#999999" stop-opacity="0.298278"/>
<stop offset="0.50268" stop-color="#999999" stop-opacity="0.4"/>
<stop offset="0.746415" stop-color="#999999"/>
<stop offset="1" stop-color="#999999" stop-opacity="0.2"/>
</radialGradient>
<radialGradient id="paint44_angular_157_2250" cx="0" cy="0" r="1" gradientUnits="userSpaceOnUse" gradientTransform="translate(907.5 93.9998) rotate(148.153) scale(1191.75 662.761)">
<stop offset="0.247013" stop-color="#999999" stop-opacity="0.298278"/>
<stop offset="0.50268" stop-color="#999999" stop-opacity="0.4"/>
<stop offset="0.746415" stop-color="#999999"/>
<stop offset="1" stop-color="#999999" stop-opacity="0.2"/>
</radialGradient>
<radialGradient id="paint45_angular_157_2250" cx="0" cy="0" r="1" gradientUnits="userSpaceOnUse" gradientTransform="translate(907.502 94.0006) rotate(117.729) scale(1122.52 703.638)">
<stop offset="0.247013" stop-color="#999999" stop-opacity="0.298278"/>
<stop offset="0.50268" stop-color="#999999" stop-opacity="0.4"/>
<stop offset="0.746415" stop-color="#999999"/>
<stop offset="1" stop-color="#999999" stop-opacity="0.2"/>
</radialGradient>
<radialGradient id="paint46_angular_157_2250" cx="0" cy="0" r="1" gradientUnits="userSpaceOnUse" gradientTransform="translate(907.504 94.0006) rotate(22.473) scale(1212.11 651.63)">
<stop offset="0.247013" stop-color="#999999" stop-opacity="0.298278"/>
<stop offset="0.50268" stop-color="#999999" stop-opacity="0.4"/>
<stop offset="0.746415" stop-color="#999999"/>
<stop offset="1" stop-color="#999999" stop-opacity="0.2"/>
</radialGradient>
<radialGradient id="paint47_angular_157_2250" cx="0" cy="0" r="1" gradientUnits="userSpaceOnUse" gradientTransform="translate(907.497 93.9992) rotate(67.6921) scale(1113.55 709.305)">
<stop offset="0.247013" stop-color="#999999" stop-opacity="0.298278"/>
<stop offset="0.50268" stop-color="#999999" stop-opacity="0.4"/>
<stop offset="0.746415" stop-color="#999999"/>
<stop offset="1" stop-color="#999999" stop-opacity="0.2"/>
</radialGradient>
<radialGradient id="paint48_angular_157_2250" cx="0" cy="0" r="1" gradientUnits="userSpaceOnUse" gradientTransform="translate(907.498 93.9999) rotate(162.106) scale(1220.35 647.228)">
<stop offset="0.247013" stop-color="#999999" stop-opacity="0.298278"/>
<stop offset="0.50268" stop-color="#999999" stop-opacity="0.4"/>
<stop offset="0.746415" stop-color="#999999"/>
<stop offset="1" stop-color="#999999" stop-opacity="0.2"/>
</radialGradient>
<radialGradient id="paint49_angular_157_2250" cx="0" cy="0" r="1" gradientUnits="userSpaceOnUse" gradientTransform="translate(907.503 93.9993) rotate(81.5585) scale(1098.85 718.793)">
<stop offset="0.247013" stop-color="#999999" stop-opacity="0.298278"/>
<stop offset="0.50268" stop-color="#999999" stop-opacity="0.4"/>
<stop offset="0.746415" stop-color="#999999"/>
<stop offset="1" stop-color="#999999" stop-opacity="0.2"/>
</radialGradient>
<radialGradient id="paint50_angular_157_2250" cx="0" cy="0" r="1" gradientUnits="userSpaceOnUse" gradientTransform="translate(907.507 93.9991) rotate(-6.66135) scale(1233.6 640.275)">
<stop offset="0.247013" stop-color="#999999" stop-opacity="0.298278"/>
<stop offset="0.50268" stop-color="#999999" stop-opacity="0.4"/>
<stop offset="0.746415" stop-color="#999999"/>
<stop offset="1" stop-color="#999999" stop-opacity="0.2"/>
</radialGradient>
<radialGradient id="paint51_angular_157_2250" cx="0" cy="0" r="1" gradientUnits="userSpaceOnUse" gradientTransform="translate(907.498 93.9996) rotate(34.243) scale(1186.06 665.942)">
<stop offset="0.247013" stop-color="#999999" stop-opacity="0.298278"/>
<stop offset="0.50268" stop-color="#999999" stop-opacity="0.4"/>
<stop offset="0.746415" stop-color="#999999"/>
<stop offset="1" stop-color="#999999" stop-opacity="0.2"/>
</radialGradient>
<radialGradient id="paint52_angular_157_2250" cx="0" cy="0" r="1" gradientUnits="userSpaceOnUse" gradientTransform="translate(907.504 93.9993) rotate(130.859) scale(1150.01 686.818)">
<stop offset="0.247013" stop-color="#999999" stop-opacity="0.298278"/>
<stop offset="0.50268" stop-color="#999999" stop-opacity="0.4"/>
<stop offset="0.746415" stop-color="#999999"/>
<stop offset="1" stop-color="#999999" stop-opacity="0.2"/>
</radialGradient>
<radialGradient id="paint53_angular_157_2250" cx="0" cy="0" r="1" gradientUnits="userSpaceOnUse" gradientTransform="translate(907.504 93.9998) rotate(98.4415) scale(1098.85 718.793)">
<stop offset="0.247013" stop-color="#999999" stop-opacity="0.298278"/>
<stop offset="0.50268" stop-color="#999999" stop-opacity="0.4"/>
<stop offset="0.746415" stop-color="#999999"/>
<stop offset="1" stop-color="#999999" stop-opacity="0.2"/>
</radialGradient>
<radialGradient id="paint54_angular_157_2250" cx="0" cy="0" r="1" gradientUnits="userSpaceOnUse" gradientTransform="translate(907.503 93.9998) rotate(6.66135) scale(1233.6 640.275)">
<stop offset="0.247013" stop-color="#999999" stop-opacity="0.298278"/>
<stop offset="0.50268" stop-color="#999999" stop-opacity="0.4"/>
<stop offset="0.746415" stop-color="#999999"/>
<stop offset="1" stop-color="#999999" stop-opacity="0.2"/>
</radialGradient>
<radialGradient id="paint55_angular_157_2250" cx="0" cy="0" r="1" gradientUnits="userSpaceOnUse" gradientTransform="translate(907.503 93.9994) rotate(49.1408) scale(1150.01 686.818)">
<stop offset="0.247013" stop-color="#999999" stop-opacity="0.298278"/>
<stop offset="0.50268" stop-color="#999999" stop-opacity="0.4"/>
<stop offset="0.746415" stop-color="#999999"/>
<stop offset="1" stop-color="#999999" stop-opacity="0.2"/>
</radialGradient>
<radialGradient id="paint56_angular_157_2250" cx="0" cy="0" r="1" gradientUnits="userSpaceOnUse" gradientTransform="translate(907.5 93.9999) rotate(145.757) scale(1186.06 665.942)">
<stop offset="0.247013" stop-color="#999999" stop-opacity="0.298278"/>
<stop offset="0.50268" stop-color="#999999" stop-opacity="0.4"/>
<stop offset="0.746415" stop-color="#999999"/>
<stop offset="1" stop-color="#999999" stop-opacity="0.2"/>
</radialGradient>
<radialGradient id="paint57_angular_157_2250" cx="0" cy="0" r="1" gradientUnits="userSpaceOnUse" gradientTransform="translate(907.504 93.9998) rotate(98.4415) scale(1098.85 718.793)">
<stop offset="0.247013" stop-color="#999999" stop-opacity="0.298278"/>
<stop offset="0.50268" stop-color="#999999" stop-opacity="0.4"/>
<stop offset="0.746415" stop-color="#999999"/>
<stop offset="1" stop-color="#999999" stop-opacity="0.2"/>
</radialGradient>
<radialGradient id="paint58_angular_157_2250" cx="0" cy="0" r="1" gradientUnits="userSpaceOnUse" gradientTransform="translate(907.503 93.9998) rotate(6.66135) scale(1233.6 640.275)">
<stop offset="0.247013" stop-color="#999999" stop-opacity="0.298278"/>
<stop offset="0.50268" stop-color="#999999" stop-opacity="0.4"/>
<stop offset="0.746415" stop-color="#999999"/>
<stop offset="1" stop-color="#999999" stop-opacity="0.2"/>
</radialGradient>
<radialGradient id="paint59_angular_157_2250" cx="0" cy="0" r="1" gradientUnits="userSpaceOnUse" gradientTransform="translate(907.503 93.9994) rotate(49.1408) scale(1150.01 686.818)">
<stop offset="0.247013" stop-color="#999999" stop-opacity="0.298278"/>
<stop offset="0.50268" stop-color="#999999" stop-opacity="0.4"/>
<stop offset="0.746415" stop-color="#999999"/>
<stop offset="1" stop-color="#999999" stop-opacity="0.2"/>
</radialGradient>
<radialGradient id="paint60_angular_157_2250" cx="0" cy="0" r="1" gradientUnits="userSpaceOnUse" gradientTransform="translate(907.5 93.9999) rotate(145.757) scale(1186.06 665.942)">
<stop offset="0.247013" stop-color="#999999" stop-opacity="0.298278"/>
<stop offset="0.50268" stop-color="#999999" stop-opacity="0.4"/>
<stop offset="0.746415" stop-color="#999999"/>
<stop offset="1" stop-color="#999999" stop-opacity="0.2"/>
</radialGradient>
<radialGradient id="paint61_angular_157_2250" cx="0" cy="0" r="1" gradientUnits="userSpaceOnUse" gradientTransform="translate(907.505 94.0003) rotate(115.029) scale(1117.84 706.578)">
<stop offset="0.247013" stop-color="#999999" stop-opacity="0.298278"/>
<stop offset="0.50268" stop-color="#999999" stop-opacity="0.4"/>
<stop offset="0.746415" stop-color="#999999"/>
<stop offset="1" stop-color="#999999" stop-opacity="0.2"/>
</radialGradient>
<radialGradient id="paint62_angular_157_2250" cx="0" cy="0" r="1" gradientUnits="userSpaceOnUse" gradientTransform="translate(907.501 94.0006) rotate(20.1758) scale(1216.41 649.322)">
<stop offset="0.247013" stop-color="#999999" stop-opacity="0.298278"/>
<stop offset="0.50268" stop-color="#999999" stop-opacity="0.4"/>
<stop offset="0.746415" stop-color="#999999"/>
<stop offset="1" stop-color="#999999" stop-opacity="0.2"/>
</radialGradient>
<radialGradient id="paint63_angular_157_2250" cx="0" cy="0" r="1" gradientUnits="userSpaceOnUse" gradientTransform="translate(907.499 93.9992) rotate(64.9708) scale(1117.84 706.578)">
<stop offset="0.247013" stop-color="#999999" stop-opacity="0.298278"/>
<stop offset="0.50268" stop-color="#999999" stop-opacity="0.4"/>
<stop offset="0.746415" stop-color="#999999"/>
<stop offset="1" stop-color="#999999" stop-opacity="0.2"/>
</radialGradient>
<radialGradient id="paint64_angular_157_2250" cx="0" cy="0" r="1" gradientUnits="userSpaceOnUse" gradientTransform="translate(907.498 94.0001) rotate(159.824) scale(1216.41 649.322)">
<stop offset="0.247013" stop-color="#999999" stop-opacity="0.298278"/>
<stop offset="0.50268" stop-color="#999999" stop-opacity="0.4"/>
<stop offset="0.746415" stop-color="#999999"/>
<stop offset="1" stop-color="#999999" stop-opacity="0.2"/>
</radialGradient>
<radialGradient id="paint65_angular_157_2250" cx="0" cy="0" r="1" gradientUnits="userSpaceOnUse" gradientTransform="translate(907.506 93.9993) rotate(78.758) scale(1100.79 717.526)">
<stop offset="0.247013" stop-color="#999999" stop-opacity="0.298278"/>
<stop offset="0.50268" stop-color="#999999" stop-opacity="0.4"/>
<stop offset="0.746415" stop-color="#999999"/>
<stop offset="1" stop-color="#999999" stop-opacity="0.2"/>
</radialGradient>
<radialGradient id="paint66_angular_157_2250" cx="0" cy="0" r="1" gradientUnits="userSpaceOnUse" gradientTransform="translate(907.507 93.9991) rotate(-8.89017) scale(1231.87 641.175)">
<stop offset="0.247013" stop-color="#999999" stop-opacity="0.298278"/>
<stop offset="0.50268" stop-color="#999999" stop-opacity="0.4"/>
<stop offset="0.746415" stop-color="#999999"/>
<stop offset="1" stop-color="#999999" stop-opacity="0.2"/>
</radialGradient>
<radialGradient id="paint67_angular_157_2250" cx="0" cy="0" r="1" gradientUnits="userSpaceOnUse" gradientTransform="translate(907.5 93.9996) rotate(31.8467) scale(1191.75 662.761)">
<stop offset="0.247013" stop-color="#999999" stop-opacity="0.298278"/>
<stop offset="0.50268" stop-color="#999999" stop-opacity="0.4"/>
<stop offset="0.746415" stop-color="#999999"/>
<stop offset="1" stop-color="#999999" stop-opacity="0.2"/>
</radialGradient>
<radialGradient id="paint68_angular_157_2250" cx="0" cy="0" r="1" gradientUnits="userSpaceOnUse" gradientTransform="translate(907.504 93.9991) rotate(128.285) scale(1144.1 690.36)">
<stop offset="0.247013" stop-color="#999999" stop-opacity="0.298278"/>
<stop offset="0.50268" stop-color="#999999" stop-opacity="0.4"/>
<stop offset="0.746415" stop-color="#999999"/>
<stop offset="1" stop-color="#999999" stop-opacity="0.2"/>
</radialGradient>
<radialGradient id="paint69_angular_157_2250" cx="0" cy="0" r="1" gradientUnits="userSpaceOnUse" gradientTransform="translate(907.504 93.9996) rotate(95.6325) scale(1097.45 719.709)">
<stop offset="0.247013" stop-color="#999999" stop-opacity="0.298278"/>
<stop offset="0.50268" stop-color="#999999" stop-opacity="0.4"/>
<stop offset="0.746415" stop-color="#999999"/>
<stop offset="1" stop-color="#999999" stop-opacity="0.2"/>
</radialGradient>
<radialGradient id="paint70_angular_157_2250" cx="0" cy="0" r="1" gradientUnits="userSpaceOnUse" gradientTransform="translate(907.504 93.9997) rotate(4.43791) scale(1234.85 639.63)">
<stop offset="0.247013" stop-color="#999999" stop-opacity="0.298278"/>
<stop offset="0.50268" stop-color="#999999" stop-opacity="0.4"/>
<stop offset="0.746415" stop-color="#999999"/>
<stop offset="1" stop-color="#999999" stop-opacity="0.2"/>
</radialGradient>
<radialGradient id="paint71_angular_157_2250" cx="0" cy="0" r="1" gradientUnits="userSpaceOnUse" gradientTransform="translate(907.501 93.9994) rotate(46.5929) scale(1156.01 683.248)">
<stop offset="0.247013" stop-color="#999999" stop-opacity="0.298278"/>
<stop offset="0.50268" stop-color="#999999" stop-opacity="0.4"/>
<stop offset="0.746415" stop-color="#999999"/>
<stop offset="1" stop-color="#999999" stop-opacity="0.2"/>
</radialGradient>
<radialGradient id="paint72_angular_157_2250" cx="0" cy="0" r="1" gradientUnits="userSpaceOnUse" gradientTransform="translate(907.503 93.9999) rotate(143.337) scale(1180.2 669.246)">
<stop offset="0.247013" stop-color="#999999" stop-opacity="0.298278"/>
<stop offset="0.50268" stop-color="#999999" stop-opacity="0.4"/>
<stop offset="0.746415" stop-color="#999999"/>
<stop offset="1" stop-color="#999999" stop-opacity="0.2"/>
</radialGradient>
<radialGradient id="paint73_angular_157_2250" cx="0" cy="0" r="1" gradientUnits="userSpaceOnUse" gradientTransform="translate(907.504 93.9996) rotate(95.6325) scale(1097.45 719.709)">
<stop offset="0.247013" stop-color="#999999" stop-opacity="0.298278"/>
<stop offset="0.50268" stop-color="#999999" stop-opacity="0.4"/>
<stop offset="0.746415" stop-color="#999999"/>
<stop offset="1" stop-color="#999999" stop-opacity="0.2"/>
</radialGradient>
<radialGradient id="paint74_angular_157_2250" cx="0" cy="0" r="1" gradientUnits="userSpaceOnUse" gradientTransform="translate(907.504 93.9997) rotate(4.43791) scale(1234.85 639.63)">
<stop offset="0.247013" stop-color="#999999" stop-opacity="0.298278"/>
<stop offset="0.50268" stop-color="#999999" stop-opacity="0.4"/>
<stop offset="0.746415" stop-color="#999999"/>
<stop offset="1" stop-color="#999999" stop-opacity="0.2"/>
</radialGradient>
<radialGradient id="paint75_angular_157_2250" cx="0" cy="0" r="1" gradientUnits="userSpaceOnUse" gradientTransform="translate(907.501 93.9994) rotate(46.5929) scale(1156.01 683.248)">
<stop offset="0.247013" stop-color="#999999" stop-opacity="0.298278"/>
<stop offset="0.50268" stop-color="#999999" stop-opacity="0.4"/>
<stop offset="0.746415" stop-color="#999999"/>
<stop offset="1" stop-color="#999999" stop-opacity="0.2"/>
</radialGradient>
<radialGradient id="paint76_angular_157_2250" cx="0" cy="0" r="1" gradientUnits="userSpaceOnUse" gradientTransform="translate(907.503 93.9999) rotate(143.337) scale(1180.2 669.246)">
<stop offset="0.247013" stop-color="#999999" stop-opacity="0.298278"/>
<stop offset="0.50268" stop-color="#999999" stop-opacity="0.4"/>
<stop offset="0.746415" stop-color="#999999"/>
<stop offset="1" stop-color="#999999" stop-opacity="0.2"/>
</radialGradient>
<radialGradient id="paint77_angular_157_2250" cx="0" cy="0" r="1" gradientUnits="userSpaceOnUse" gradientTransform="translate(907.508 94.0002) rotate(112.308) scale(1113.55 709.305)">
<stop offset="0.247013" stop-color="#999999" stop-opacity="0.298278"/>
<stop offset="0.50268" stop-color="#999999" stop-opacity="0.4"/>
<stop offset="0.746415" stop-color="#999999"/>
<stop offset="1" stop-color="#999999" stop-opacity="0.2"/>
</radialGradient>
<radialGradient id="paint78_angular_157_2250" cx="0" cy="0" r="1" gradientUnits="userSpaceOnUse" gradientTransform="translate(907.505 94.0006) rotate(17.8942) scale(1220.35 647.228)">
<stop offset="0.247013" stop-color="#999999" stop-opacity="0.298278"/>
<stop offset="0.50268" stop-color="#999999" stop-opacity="0.4"/>
<stop offset="0.746415" stop-color="#999999"/>
<stop offset="1" stop-color="#999999" stop-opacity="0.2"/>
</radialGradient>
<radialGradient id="paint79_angular_157_2250" cx="0" cy="0" r="1" gradientUnits="userSpaceOnUse" gradientTransform="translate(907.5 93.9996) rotate(62.2712) scale(1122.52 703.638)">
<stop offset="0.247013" stop-color="#999999" stop-opacity="0.298278"/>
<stop offset="0.50268" stop-color="#999999" stop-opacity="0.4"/>
<stop offset="0.746415" stop-color="#999999"/>
<stop offset="1" stop-color="#999999" stop-opacity="0.2"/>
</radialGradient>
<radialGradient id="paint80_angular_157_2250" cx="0" cy="0" r="1" gradientUnits="userSpaceOnUse" gradientTransform="translate(907.501 94.0001) rotate(157.527) scale(1212.11 651.63)">
<stop offset="0.247013" stop-color="#999999" stop-opacity="0.298278"/>
<stop offset="0.50268" stop-color="#999999" stop-opacity="0.4"/>
<stop offset="0.746415" stop-color="#999999"/>
<stop offset="1" stop-color="#999999" stop-opacity="0.2"/>
</radialGradient>
<radialGradient id="paint81_angular_157_2250" cx="0" cy="0" r="1" gradientUnits="userSpaceOnUse" gradientTransform="translate(907.503 93.999) rotate(75.9687) scale(1103.25 715.923)">
<stop offset="0.247013" stop-color="#999999" stop-opacity="0.298278"/>
<stop offset="0.50268" stop-color="#999999" stop-opacity="0.4"/>
<stop offset="0.746415" stop-color="#999999"/>
<stop offset="1" stop-color="#999999" stop-opacity="0.2"/>
</radialGradient>
<radialGradient id="paint82_angular_157_2250" cx="0" cy="0" r="1" gradientUnits="userSpaceOnUse" gradientTransform="translate(907.501 93.999) rotate(-11.1261) scale(1229.66 642.325)">
<stop offset="0.247013" stop-color="#999999" stop-opacity="0.298278"/>
<stop offset="0.50268" stop-color="#999999" stop-opacity="0.4"/>
<stop offset="0.746415" stop-color="#999999"/>
<stop offset="1" stop-color="#999999" stop-opacity="0.2"/>
</radialGradient>
<radialGradient id="paint83_angular_157_2250" cx="0" cy="0" r="1" gradientUnits="userSpaceOnUse" gradientTransform="translate(907.5 93.9997) rotate(29.4728) scale(1197.24 659.722)">
<stop offset="0.247013" stop-color="#999999" stop-opacity="0.298278"/>
<stop offset="0.50268" stop-color="#999999" stop-opacity="0.4"/>
<stop offset="0.746415" stop-color="#999999"/>
<stop offset="1" stop-color="#999999" stop-opacity="0.2"/>
</radialGradient>
<radialGradient id="paint84_angular_157_2250" cx="0" cy="0" r="1" gradientUnits="userSpaceOnUse" gradientTransform="translate(907.502 93.9991) rotate(125.684) scale(1138.36 693.845)">
<stop offset="0.247013" stop-color="#999999" stop-opacity="0.298278"/>
<stop offset="0.50268" stop-color="#999999" stop-opacity="0.4"/>
<stop offset="0.746415" stop-color="#999999"/>
<stop offset="1" stop-color="#999999" stop-opacity="0.2"/>
</radialGradient>
<radialGradient id="paint85_angular_157_2250" cx="0" cy="0" r="1" gradientUnits="userSpaceOnUse" gradientTransform="translate(907.507 93.9994) rotate(92.8177) scale(1096.61 720.264)">
<stop offset="0.247013" stop-color="#999999" stop-opacity="0.298278"/>
<stop offset="0.50268" stop-color="#999999" stop-opacity="0.4"/>
<stop offset="0.746415" stop-color="#999999"/>
<stop offset="1" stop-color="#999999" stop-opacity="0.2"/>
</radialGradient>
<radialGradient id="paint86_angular_157_2250" cx="0" cy="0" r="1" gradientUnits="userSpaceOnUse" gradientTransform="translate(907.504 93.9997) rotate(2.21806) scale(1235.6 639.241)">
<stop offset="0.247013" stop-color="#999999" stop-opacity="0.298278"/>
<stop offset="0.50268" stop-color="#999999" stop-opacity="0.4"/>
<stop offset="0.746415" stop-color="#999999"/>
<stop offset="1" stop-color="#999999" stop-opacity="0.2"/>
</radialGradient>
<radialGradient id="paint87_angular_157_2250" cx="0" cy="0" r="1" gradientUnits="userSpaceOnUse" gradientTransform="translate(907.501 93.9995) rotate(44.0715) scale(1162.08 679.679)">
<stop offset="0.247013" stop-color="#999999" stop-opacity="0.298278"/>
<stop offset="0.50268" stop-color="#999999" stop-opacity="0.4"/>
<stop offset="0.746415" stop-color="#999999"/>
<stop offset="1" stop-color="#999999" stop-opacity="0.2"/>
</radialGradient>
<radialGradient id="paint88_angular_157_2250" cx="0" cy="0" r="1" gradientUnits="userSpaceOnUse" gradientTransform="translate(907.502 94) rotate(140.893) scale(1174.22 672.653)">
<stop offset="0.247013" stop-color="#999999" stop-opacity="0.298278"/>
<stop offset="0.50268" stop-color="#999999" stop-opacity="0.4"/>
<stop offset="0.746415" stop-color="#999999"/>
<stop offset="1" stop-color="#999999" stop-opacity="0.2"/>
</radialGradient>
<radialGradient id="paint89_angular_157_2250" cx="0" cy="0" r="1" gradientUnits="userSpaceOnUse" gradientTransform="translate(907.507 93.9994) rotate(92.8177) scale(1096.61 720.264)">
<stop offset="0.247013" stop-color="#999999" stop-opacity="0.298278"/>
<stop offset="0.50268" stop-color="#999999" stop-opacity="0.4"/>
<stop offset="0.746415" stop-color="#999999"/>
<stop offset="1" stop-color="#999999" stop-opacity="0.2"/>
</radialGradient>
<radialGradient id="paint90_angular_157_2250" cx="0" cy="0" r="1" gradientUnits="userSpaceOnUse" gradientTransform="translate(907.504 93.9997) rotate(2.21806) scale(1235.6 639.241)">
<stop offset="0.247013" stop-color="#999999" stop-opacity="0.298278"/>
<stop offset="0.50268" stop-color="#999999" stop-opacity="0.4"/>
<stop offset="0.746415" stop-color="#999999"/>
<stop offset="1" stop-color="#999999" stop-opacity="0.2"/>
</radialGradient>
<radialGradient id="paint91_angular_157_2250" cx="0" cy="0" r="1" gradientUnits="userSpaceOnUse" gradientTransform="translate(907.501 93.9995) rotate(44.0715) scale(1162.08 679.679)">
<stop offset="0.247013" stop-color="#999999" stop-opacity="0.298278"/>
<stop offset="0.50268" stop-color="#999999" stop-opacity="0.4"/>
<stop offset="0.746415" stop-color="#999999"/>
<stop offset="1" stop-color="#999999" stop-opacity="0.2"/>
</radialGradient>
<radialGradient id="paint92_angular_157_2250" cx="0" cy="0" r="1" gradientUnits="userSpaceOnUse" gradientTransform="translate(907.502 94) rotate(140.893) scale(1174.22 672.653)">
<stop offset="0.247013" stop-color="#999999" stop-opacity="0.298278"/>
<stop offset="0.50268" stop-color="#999999" stop-opacity="0.4"/>
<stop offset="0.746415" stop-color="#999999"/>
<stop offset="1" stop-color="#999999" stop-opacity="0.2"/>
</radialGradient>
<radialGradient id="paint93_angular_157_2250" cx="0" cy="0" r="1" gradientUnits="userSpaceOnUse" gradientTransform="translate(907.503 94.0002) rotate(109.567) scale(1109.66 711.789)">
<stop offset="0.247013" stop-color="#999999" stop-opacity="0.298278"/>
<stop offset="0.50268" stop-color="#999999" stop-opacity="0.4"/>
<stop offset="0.746415" stop-color="#999999"/>
<stop offset="1" stop-color="#999999" stop-opacity="0.2"/>
</radialGradient>
<radialGradient id="paint94_angular_157_2250" cx="0" cy="0" r="1" gradientUnits="userSpaceOnUse" gradientTransform="translate(907.504 94.0006) rotate(15.6264) scale(1223.89 645.358)">
<stop offset="0.247013" stop-color="#999999" stop-opacity="0.298278"/>
<stop offset="0.50268" stop-color="#999999" stop-opacity="0.4"/>
<stop offset="0.746415" stop-color="#999999"/>
<stop offset="1" stop-color="#999999" stop-opacity="0.2"/>
</radialGradient>
<radialGradient id="paint95_angular_157_2250" cx="0" cy="0" r="1" gradientUnits="userSpaceOnUse" gradientTransform="translate(907.498 93.9997) rotate(59.5948) scale(1127.52 700.515)">
<stop offset="0.247013" stop-color="#999999" stop-opacity="0.298278"/>
<stop offset="0.50268" stop-color="#999999" stop-opacity="0.4"/>
<stop offset="0.746415" stop-color="#999999"/>
<stop offset="1" stop-color="#999999" stop-opacity="0.2"/>
</radialGradient>
<radialGradient id="paint96_angular_157_2250" cx="0" cy="0" r="1" gradientUnits="userSpaceOnUse" gradientTransform="translate(907.499 94.0003) rotate(155.213) scale(1207.45 654.142)">
<stop offset="0.247013" stop-color="#999999" stop-opacity="0.298278"/>
<stop offset="0.50268" stop-color="#999999" stop-opacity="0.4"/>
<stop offset="0.746415" stop-color="#999999"/>
<stop offset="1" stop-color="#999999" stop-opacity="0.2"/>
</radialGradient>
</defs>
</svg>
