<svg width="30" height="24" viewBox="0 0 30 24" fill="none" xmlns="http://www.w3.org/2000/svg">
<g id="Twitter  svg" clip-path="url(#clip0_105_1643)">
<g id="Logo_1_">
<path id="white_background" d="M26.5105 6.0341C26.5281 6.2894 26.5281 6.54469 26.5281 6.80234C26.5281 14.6529 20.5632 23.707 9.65608 23.707V23.7023C6.4341 23.707 3.27904 22.7823 0.56665 21.0388C1.03515 21.0953 1.50601 21.1235 1.97803 21.1247C4.64815 21.127 7.24194 20.2294 9.34257 18.5765C6.80514 18.5282 4.58004 16.8706 3.80273 14.4506C4.69159 14.6223 5.60746 14.587 6.47989 14.3482C3.71349 13.7882 1.72323 11.3529 1.72323 8.52469C1.72323 8.49881 1.72323 8.4741 1.72323 8.4494C2.54752 8.9094 3.47043 9.16469 4.41448 9.19293C1.80895 7.44822 1.0058 3.97528 2.57922 1.25999C5.58985 4.97175 10.0318 7.22822 14.8002 7.46704C14.3223 5.40352 14.9752 3.24116 16.5157 1.79057C18.904 -0.458838 22.6603 -0.343544 24.9053 2.04822C26.2333 1.78587 27.5062 1.29763 28.671 0.605868C28.2283 1.98116 27.3019 3.1494 26.0643 3.89175C27.2396 3.75293 28.388 3.43763 29.4694 2.95646C28.6733 4.15175 27.6706 5.19293 26.5105 6.0341Z" fill="#3C3C43" fill-opacity="0.6"/>
</g>
</g>
<defs>
<clipPath id="clip0_105_1643">
<rect width="29.12" height="24" fill="white" transform="translate(0.449219)"/>
</clipPath>
</defs>
</svg>
